<svg width="155" height="24" viewBox="0 0 155 24" fill="none" xmlns="http://www.w3.org/2000/svg">
<g clip-path="url(#clip0_101_1014)">
<path d="M20 7.54189C20 7.33454 20 7.14604 20 6.93869C19.9812 6.50513 19.9623 6.05273 19.8869 5.61918C19.8115 5.18562 19.6796 4.77092 19.4722 4.37507C19.2649 3.97921 19.0198 3.62106 18.6994 3.31946C18.3789 2.99901 18.0208 2.75395 17.6438 2.5466C17.2479 2.33925 16.8332 2.2073 16.3996 2.1319C15.9661 2.0565 15.5325 2.0188 15.0801 2.0188C14.8728 2.0188 14.6843 2.0188 14.4769 2.0188C14.2319 2.0188 14.0057 2.0188 13.7606 2.0188H8.46373H6.27712C6.03207 2.0188 5.80586 2.0188 5.56081 2.0188C5.35346 2.0188 5.16496 2.0188 4.95761 2.0188C4.84451 2.0188 4.73141 2.0188 4.63716 2.03765C4.3167 2.0565 3.9774 2.07535 3.65695 2.1319C3.33649 2.18845 3.01604 2.2827 2.71444 2.3958C2.62019 2.4335 2.50709 2.49005 2.41284 2.52775C2.11124 2.67856 1.84733 2.86706 1.58343 3.07441C1.50803 3.14981 1.41378 3.22521 1.33838 3.30061C1.01793 3.62106 0.772876 3.97921 0.565524 4.35622C0.358173 4.75207 0.226222 5.16677 0.150822 5.60033C0.0754212 6.03388 0.0565699 6.46743 0.0377197 6.91984C0.0377197 7.12719 0.0377197 7.31569 0.0377197 7.52304C0.0377197 7.76809 0.0377197 7.99429 0.0377197 8.23935V11.5004V15.7229C0.0377197 15.9679 0.0377197 16.1941 0.0377197 16.4392C0.0377197 16.6465 0.0377197 16.835 0.0377197 17.0424C0.0565699 17.4759 0.0754212 17.9283 0.150822 18.3619C0.226222 18.7954 0.358173 19.2101 0.565524 19.606C0.772876 20.0018 1.01793 20.36 1.33838 20.6616C1.65883 20.982 2.01698 21.2271 2.39399 21.4344C2.78984 21.6418 3.20454 21.7737 3.6381 21.8492C4.07165 21.9246 4.5052 21.9622 4.95761 21.9622C5.16496 21.9622 5.35346 21.9622 5.56081 21.9622C5.80586 21.9622 6.03207 21.9622 6.27712 21.9622H13.7606C14.0057 21.9622 14.2319 21.9622 14.4769 21.9622C14.6843 21.9622 14.8728 21.9622 15.0801 21.9622C15.5137 21.9434 15.9661 21.9246 16.3996 21.8492C16.8332 21.7737 17.2479 21.6418 17.6438 21.4344C18.0396 21.2271 18.3978 20.982 18.6994 20.6616C19.0198 20.3411 19.2649 19.983 19.4722 19.606C19.6796 19.2101 19.8115 18.7954 19.8869 18.3619C19.9623 17.9283 20 17.4948 20 17.0424C20 16.835 20 16.6465 20 16.4392C20 16.1941 20 15.9679 20 15.7229V8.23935C20 8.01314 20 7.78694 20 7.54189Z" fill="#F05138"/>
<path d="M15.8341 14.3468C15.853 14.2714 15.8718 14.196 15.8907 14.1206C16.7201 10.8218 14.7031 6.90098 11.2724 4.84631C12.7804 6.88213 13.4401 9.3515 12.8558 11.5004C12.7992 11.6889 12.7427 11.8774 12.6673 12.0659C12.5919 12.0094 12.4976 11.9528 12.3657 11.8963C12.3657 11.8963 8.9538 9.78505 5.25917 6.07157C5.16492 5.97732 7.23844 9.03104 9.57586 11.5004C8.4637 10.8784 5.39112 8.63519 3.43071 6.86328C3.67576 7.25913 3.95851 7.65498 4.26012 8.01313C5.88123 10.0867 8.01129 12.6314 10.5561 14.5918C8.7653 15.6851 6.23938 15.7794 3.73231 14.5918C3.11026 14.3091 2.5259 13.9509 1.97925 13.5551C3.03486 15.2516 4.67482 16.7219 6.67293 17.589C9.04805 18.6069 11.4232 18.5504 13.1762 17.6079C13.1762 17.6079 13.1951 17.6079 13.1951 17.589C13.2705 17.5513 13.3459 17.4948 13.4213 17.4571C14.2695 17.0235 15.9284 16.59 16.8332 18.3242C17.0971 18.72 17.5683 16.458 15.8341 14.3468Z" fill="white"/>
</g>
<path d="M31.648 16.168C30.824 16.168 30.132 15.972 29.572 15.58C29.012 15.18 28.616 14.6 28.384 13.84C28.376 13.824 28.372 13.804 28.372 13.78C28.372 13.716 28.412 13.672 28.492 13.648L29.74 13.348L29.788 13.336C29.86 13.336 29.908 13.376 29.932 13.456C30.092 13.848 30.304 14.136 30.568 14.32C30.84 14.496 31.2 14.584 31.648 14.584C32.096 14.584 32.444 14.508 32.692 14.356C32.948 14.204 33.076 13.968 33.076 13.648C33.076 13.344 32.956 13.096 32.716 12.904C32.484 12.704 32.124 12.516 31.636 12.34L30.856 12.064C29.352 11.552 28.6 10.696 28.6 9.496C28.6 9.024 28.728 8.6 28.984 8.224C29.248 7.848 29.604 7.556 30.052 7.348C30.5 7.132 31 7.024 31.552 7.024C32.304 7.024 32.94 7.204 33.46 7.564C33.988 7.916 34.36 8.452 34.576 9.172C34.584 9.188 34.588 9.208 34.588 9.232C34.588 9.296 34.548 9.34 34.468 9.364L33.148 9.7L33.1 9.712C33.028 9.712 32.98 9.672 32.956 9.592C32.812 9.24 32.628 8.988 32.404 8.836C32.18 8.684 31.896 8.608 31.552 8.608C31.168 8.608 30.86 8.684 30.628 8.836C30.396 8.988 30.28 9.192 30.28 9.448C30.28 9.72 30.396 9.956 30.628 10.156C30.868 10.348 31.248 10.532 31.768 10.708L32.392 10.912C33.208 11.184 33.804 11.532 34.18 11.956C34.564 12.372 34.756 12.936 34.756 13.648C34.756 14.128 34.624 14.56 34.36 14.944C34.096 15.328 33.728 15.628 33.256 15.844C32.784 16.06 32.248 16.168 31.648 16.168ZM37.647 16C37.551 16 37.491 15.96 37.467 15.88L35.295 9.964C35.287 9.948 35.283 9.928 35.283 9.904C35.283 9.872 35.295 9.844 35.319 9.82C35.351 9.796 35.387 9.784 35.427 9.784H36.927C37.015 9.784 37.071 9.828 37.095 9.916L38.151 13.348L39.603 9.904C39.643 9.824 39.703 9.784 39.783 9.784H40.575C40.663 9.784 40.723 9.824 40.755 9.904L42.135 13.264L43.251 9.916C43.275 9.828 43.335 9.784 43.431 9.784H44.799C44.855 9.784 44.895 9.8 44.919 9.832C44.943 9.864 44.947 9.908 44.931 9.964L42.759 15.88C42.735 15.96 42.675 16 42.579 16H41.787C41.699 16 41.639 15.96 41.607 15.88L40.155 12.328L38.619 15.88C38.579 15.96 38.519 16 38.439 16H37.647ZM46.7757 8.68C46.5117 8.68 46.2917 8.6 46.1157 8.44C45.9477 8.28 45.8637 8.072 45.8637 7.816C45.8637 7.56 45.9477 7.352 46.1157 7.192C46.2917 7.032 46.5117 6.952 46.7757 6.952C47.0397 6.952 47.2557 7.032 47.4237 7.192C47.5997 7.352 47.6877 7.56 47.6877 7.816C47.6877 8.072 47.5997 8.28 47.4237 8.44C47.2557 8.6 47.0397 8.68 46.7757 8.68ZM46.1517 16C46.0477 16 45.9957 15.948 45.9957 15.844V9.94C45.9957 9.836 46.0477 9.784 46.1517 9.784H47.3997C47.5037 9.784 47.5557 9.836 47.5557 9.94V15.844C47.5557 15.948 47.5037 16 47.3997 16H46.1517ZM49.7112 16C49.6072 16 49.5552 15.948 49.5552 15.844V11.176H48.6912C48.5872 11.176 48.5352 11.124 48.5352 11.02V9.94C48.5352 9.836 48.5872 9.784 48.6912 9.784H49.5552V9.388C49.5552 8.636 49.7512 8.036 50.1432 7.588C50.5432 7.14 51.0752 6.916 51.7392 6.916C52.7152 6.916 53.4152 7.356 53.8392 8.236C53.8472 8.252 53.8512 8.276 53.8512 8.308C53.8512 8.372 53.8192 8.416 53.7552 8.44L52.7832 8.848C52.7672 8.856 52.7432 8.86 52.7112 8.86C52.6552 8.86 52.6112 8.832 52.5792 8.776C52.4832 8.608 52.3792 8.492 52.2672 8.428C52.1632 8.364 52.0272 8.332 51.8592 8.332C51.6192 8.332 51.4352 8.42 51.3072 8.596C51.1792 8.772 51.1152 9.028 51.1152 9.364V9.784H52.6752C52.7792 9.784 52.8312 9.836 52.8312 9.94V11.02C52.8312 11.124 52.7792 11.176 52.6752 11.176H51.1152V15.844C51.1152 15.948 51.0632 16 50.9592 16H49.7112ZM56.7986 16.12C56.1186 16.12 55.5986 15.908 55.2386 15.484C54.8866 15.06 54.7106 14.432 54.7106 13.6V11.176H53.7986C53.6946 11.176 53.6426 11.124 53.6426 11.02V9.94C53.6426 9.836 53.6946 9.784 53.7986 9.784H54.7106V8.116C54.7106 8.012 54.7626 7.96 54.8666 7.96H56.1146C56.2186 7.96 56.2706 8.012 56.2706 8.116V9.784H57.7466C57.8506 9.784 57.9026 9.836 57.9026 9.94V11.02C57.9026 11.124 57.8506 11.176 57.7466 11.176H56.2706V13.696C56.2706 14.032 56.3266 14.284 56.4386 14.452C56.5506 14.62 56.7266 14.704 56.9666 14.704C57.1666 14.704 57.3226 14.604 57.4346 14.404C57.4906 14.308 57.5626 14.284 57.6506 14.332L58.5866 14.752C58.6426 14.776 58.6706 14.82 58.6706 14.884C58.6706 14.916 58.6586 14.956 58.6346 15.004C58.4266 15.388 58.1626 15.672 57.8426 15.856C57.5226 16.032 57.1746 16.12 56.7986 16.12ZM66.2961 16.168C65.4401 16.168 64.6881 15.98 64.0401 15.604C63.3921 15.228 62.8881 14.696 62.5281 14.008C62.1761 13.312 62.0001 12.508 62.0001 11.596C62.0001 10.684 62.1841 9.884 62.5521 9.196C62.9201 8.5 63.4321 7.964 64.0881 7.588C64.7441 7.212 65.4881 7.024 66.3201 7.024C67.2401 7.024 68.0241 7.232 68.6721 7.648C69.3201 8.056 69.7921 8.636 70.0881 9.388C70.0961 9.404 70.1001 9.428 70.1001 9.46C70.1001 9.532 70.0641 9.576 69.9921 9.592L68.7081 9.952L68.6601 9.964C68.5881 9.964 68.5401 9.928 68.5161 9.856C68.3081 9.456 68.0161 9.148 67.6401 8.932C67.2721 8.716 66.8401 8.608 66.3441 8.608C65.5121 8.608 64.8601 8.88 64.3881 9.424C63.9161 9.96 63.6801 10.684 63.6801 11.596C63.6801 12.508 63.9161 13.236 64.3881 13.78C64.8681 14.316 65.5201 14.584 66.3441 14.584C66.9201 14.584 67.4081 14.448 67.8081 14.176C68.2161 13.904 68.5161 13.496 68.7081 12.952C68.7401 12.856 68.8041 12.82 68.9001 12.844L70.1721 13.204C70.2681 13.228 70.3041 13.28 70.2801 13.36C70.0401 14.216 69.5761 14.9 68.8881 15.412C68.2001 15.916 67.3361 16.168 66.2961 16.168ZM74.4003 16.12C73.7443 16.12 73.1683 15.984 72.6723 15.712C72.1763 15.432 71.7923 15.048 71.5203 14.56C71.2483 14.072 71.1123 13.516 71.1123 12.892C71.1123 12.268 71.2483 11.712 71.5203 11.224C71.7923 10.736 72.1763 10.356 72.6723 10.084C73.1683 9.804 73.7443 9.664 74.4003 9.664C75.0563 9.664 75.6323 9.804 76.1283 10.084C76.6243 10.356 77.0083 10.736 77.2803 11.224C77.5523 11.712 77.6883 12.268 77.6883 12.892C77.6883 13.516 77.5523 14.072 77.2803 14.56C77.0083 15.048 76.6243 15.432 76.1283 15.712C75.6323 15.984 75.0563 16.12 74.4003 16.12ZM74.4003 14.704C74.8963 14.704 75.3003 14.536 75.6123 14.2C75.9243 13.864 76.0803 13.428 76.0803 12.892C76.0803 12.356 75.9243 11.92 75.6123 11.584C75.3003 11.248 74.8963 11.08 74.4003 11.08C73.9043 11.08 73.5003 11.248 73.1883 11.584C72.8763 11.92 72.7203 12.356 72.7203 12.892C72.7203 13.428 72.8763 13.864 73.1883 14.2C73.5003 14.536 73.9043 14.704 74.4003 14.704ZM81.5045 16.12C80.9205 16.12 80.4085 15.984 79.9685 15.712C79.5285 15.44 79.1885 15.06 78.9485 14.572C78.7165 14.084 78.6005 13.524 78.6005 12.892C78.6005 12.26 78.7165 11.7 78.9485 11.212C79.1885 10.724 79.5285 10.344 79.9685 10.072C80.4085 9.8 80.9205 9.664 81.5045 9.664C81.9045 9.664 82.2725 9.74 82.6085 9.892C82.9445 10.044 83.2285 10.26 83.4605 10.54V7.156C83.4605 7.052 83.5125 7 83.6165 7H84.8645C84.9685 7 85.0205 7.052 85.0205 7.156V15.844C85.0205 15.948 84.9685 16 84.8645 16H83.7365C83.6245 16 83.5685 15.948 83.5685 15.844L83.5325 15.148C83.3085 15.46 83.0205 15.7 82.6685 15.868C82.3245 16.036 81.9365 16.12 81.5045 16.12ZM81.8885 14.704C82.3845 14.704 82.7885 14.536 83.1005 14.2C83.4125 13.864 83.5685 13.428 83.5685 12.892C83.5685 12.356 83.4125 11.92 83.1005 11.584C82.7885 11.248 82.3845 11.08 81.8885 11.08C81.3925 11.08 80.9885 11.248 80.6765 11.584C80.3645 11.92 80.2085 12.356 80.2085 12.892C80.2085 13.428 80.3645 13.864 80.6765 14.2C80.9885 14.536 81.3925 14.704 81.8885 14.704ZM87.428 8.68C87.164 8.68 86.944 8.6 86.768 8.44C86.6 8.28 86.516 8.072 86.516 7.816C86.516 7.56 86.6 7.352 86.768 7.192C86.944 7.032 87.164 6.952 87.428 6.952C87.692 6.952 87.908 7.032 88.076 7.192C88.252 7.352 88.34 7.56 88.34 7.816C88.34 8.072 88.252 8.28 88.076 8.44C87.908 8.6 87.692 8.68 87.428 8.68ZM86.804 16C86.7 16 86.648 15.948 86.648 15.844V9.94C86.648 9.836 86.7 9.784 86.804 9.784H88.052C88.156 9.784 88.208 9.836 88.208 9.94V15.844C88.208 15.948 88.156 16 88.052 16H86.804ZM89.9915 16C89.8875 16 89.8355 15.948 89.8355 15.844V9.94C89.8355 9.836 89.8875 9.784 89.9915 9.784H91.1195C91.2315 9.784 91.2875 9.836 91.2875 9.94L91.3235 10.648C91.5475 10.328 91.8395 10.084 92.1995 9.916C92.5595 9.748 92.9435 9.664 93.3515 9.664C94.0715 9.664 94.6275 9.868 95.0195 10.276C95.4195 10.676 95.6195 11.236 95.6195 11.956V15.844C95.6195 15.948 95.5675 16 95.4635 16H94.2155C94.1115 16 94.0595 15.948 94.0595 15.844V12.592C94.0595 12.072 93.9635 11.692 93.7715 11.452C93.5795 11.204 93.2795 11.08 92.8715 11.08C92.4635 11.08 92.1155 11.232 91.8275 11.536C91.5395 11.84 91.3955 12.272 91.3955 12.832V15.844C91.3955 15.948 91.3435 16 91.2395 16H89.9915ZM99.9786 18.736C99.2906 18.736 98.6826 18.58 98.1546 18.268C97.6266 17.964 97.2466 17.524 97.0146 16.948L96.9906 16.876C96.9906 16.82 97.0266 16.78 97.0986 16.756L98.1066 16.384C98.1226 16.376 98.1426 16.372 98.1666 16.372C98.2226 16.372 98.2706 16.404 98.3106 16.468C98.4706 16.74 98.6786 16.948 98.9346 17.092C99.1986 17.244 99.5306 17.32 99.9306 17.32C100.459 17.32 100.887 17.196 101.215 16.948C101.543 16.708 101.707 16.328 101.707 15.808V15.244C101.475 15.524 101.191 15.74 100.855 15.892C100.519 16.044 100.151 16.12 99.7506 16.12C99.1666 16.12 98.6546 15.984 98.2146 15.712C97.7746 15.44 97.4346 15.06 97.1946 14.572C96.9626 14.084 96.8466 13.524 96.8466 12.892C96.8466 12.26 96.9626 11.7 97.1946 11.212C97.4346 10.724 97.7746 10.344 98.2146 10.072C98.6546 9.8 99.1666 9.664 99.7506 9.664C100.183 9.664 100.571 9.748 100.915 9.916C101.267 10.084 101.555 10.324 101.779 10.636L101.815 9.94C101.815 9.836 101.871 9.784 101.983 9.784H103.111C103.215 9.784 103.267 9.836 103.267 9.94V15.652C103.267 16.3 103.131 16.856 102.859 17.32C102.587 17.784 102.203 18.136 101.707 18.376C101.211 18.616 100.635 18.736 99.9786 18.736ZM100.135 14.704C100.631 14.704 101.035 14.536 101.347 14.2C101.659 13.864 101.815 13.428 101.815 12.892C101.815 12.356 101.659 11.92 101.347 11.584C101.035 11.248 100.631 11.08 100.135 11.08C99.6386 11.08 99.2346 11.248 98.9226 11.584C98.6106 11.92 98.4546 12.356 98.4546 12.892C98.4546 13.428 98.6106 13.864 98.9226 14.2C99.2346 14.536 99.6386 14.704 100.135 14.704ZM111.683 16.168C110.827 16.168 110.075 15.98 109.427 15.604C108.779 15.228 108.275 14.696 107.915 14.008C107.563 13.312 107.387 12.508 107.387 11.596C107.387 10.684 107.571 9.884 107.939 9.196C108.307 8.5 108.819 7.964 109.475 7.588C110.131 7.212 110.875 7.024 111.707 7.024C112.627 7.024 113.411 7.232 114.059 7.648C114.707 8.056 115.179 8.636 115.475 9.388C115.483 9.404 115.487 9.428 115.487 9.46C115.487 9.532 115.451 9.576 115.379 9.592L114.095 9.952L114.047 9.964C113.975 9.964 113.927 9.928 113.903 9.856C113.695 9.456 113.403 9.148 113.027 8.932C112.659 8.716 112.227 8.608 111.731 8.608C110.899 8.608 110.247 8.88 109.775 9.424C109.303 9.96 109.067 10.684 109.067 11.596C109.067 12.508 109.303 13.236 109.775 13.78C110.255 14.316 110.907 14.584 111.731 14.584C112.307 14.584 112.795 14.448 113.195 14.176C113.603 13.904 113.903 13.496 114.095 12.952C114.127 12.856 114.191 12.82 114.287 12.844L115.559 13.204C115.655 13.228 115.691 13.28 115.667 13.36C115.427 14.216 114.963 14.9 114.275 15.412C113.587 15.916 112.723 16.168 111.683 16.168ZM117.249 16C117.145 16 117.093 15.948 117.093 15.844V7.156C117.093 7.052 117.145 7 117.249 7H118.497C118.601 7 118.653 7.052 118.653 7.156V15.844C118.653 15.948 118.601 16 118.497 16H117.249ZM122.501 16.12C121.781 16.12 121.221 15.92 120.821 15.52C120.429 15.112 120.233 14.548 120.233 13.828V9.94C120.233 9.836 120.285 9.784 120.389 9.784H121.637C121.741 9.784 121.793 9.836 121.793 9.94V13.192C121.793 13.712 121.889 14.096 122.081 14.344C122.273 14.584 122.573 14.704 122.981 14.704C123.389 14.704 123.737 14.552 124.025 14.248C124.313 13.944 124.457 13.512 124.457 12.952V9.94C124.457 9.836 124.509 9.784 124.613 9.784H125.861C125.965 9.784 126.017 9.836 126.017 9.94V15.844C126.017 15.948 125.965 16 125.861 16H124.733C124.621 16 124.565 15.948 124.565 15.844L124.529 15.136C124.305 15.456 124.013 15.7 123.653 15.868C123.293 16.036 122.909 16.12 122.501 16.12ZM131.168 16.12C130.736 16.12 130.344 16.036 129.992 15.868C129.648 15.7 129.364 15.46 129.14 15.148L129.104 15.844C129.104 15.948 129.048 16 128.936 16H127.808C127.704 16 127.652 15.948 127.652 15.844V7.156C127.652 7.052 127.704 7 127.808 7H129.056C129.16 7 129.212 7.052 129.212 7.156V10.54C129.444 10.26 129.728 10.044 130.064 9.892C130.4 9.74 130.768 9.664 131.168 9.664C131.752 9.664 132.264 9.8 132.704 10.072C133.144 10.344 133.48 10.724 133.712 11.212C133.952 11.7 134.072 12.26 134.072 12.892C134.072 13.524 133.952 14.084 133.712 14.572C133.48 15.06 133.144 15.44 132.704 15.712C132.264 15.984 131.752 16.12 131.168 16.12ZM130.784 14.704C131.28 14.704 131.684 14.536 131.996 14.2C132.308 13.864 132.464 13.428 132.464 12.892C132.464 12.356 132.308 11.92 131.996 11.584C131.684 11.248 131.28 11.08 130.784 11.08C130.288 11.08 129.884 11.248 129.572 11.584C129.26 11.92 129.104 12.356 129.104 12.892C129.104 13.428 129.26 13.864 129.572 14.2C129.884 14.536 130.288 14.704 130.784 14.704ZM140.544 16C140.44 16 140.388 15.948 140.388 15.844V8.716H137.664C137.568 8.716 137.52 8.664 137.52 8.56V7.348C137.52 7.244 137.568 7.192 137.664 7.192H144.72C144.824 7.192 144.876 7.244 144.876 7.348V8.56C144.876 8.664 144.824 8.716 144.72 8.716H142.008V15.844C142.008 15.948 141.956 16 141.852 16H140.544ZM146.35 16C146.246 16 146.194 15.948 146.194 15.844V7.348C146.194 7.244 146.246 7.192 146.35 7.192H147.658C147.762 7.192 147.814 7.244 147.814 7.348V10.72H151.894V7.348C151.894 7.244 151.946 7.192 152.05 7.192H153.358C153.462 7.192 153.514 7.244 153.514 7.348V15.844C153.514 15.948 153.462 16 153.358 16H152.05C151.946 16 151.894 15.948 151.894 15.844V12.244H147.814V15.844C147.814 15.948 147.762 16 147.658 16H146.35Z" fill="white"/>
<defs>
<clipPath id="clip0_101_1014">
<rect width="20" height="20" fill="white" transform="translate(0 2)"/>
</clipPath>
</defs>
</svg>
