<svg width="58" height="47" viewBox="0 0 58 47" fill="none" xmlns="http://www.w3.org/2000/svg">
<mask id="path-1-outside-1_191_62" maskUnits="userSpaceOnUse" x="-0.976562" y="-0.5625" width="59" height="48" fill="black">
<rect fill="white" x="-0.976562" y="-0.5625" width="59" height="48"/>
<path d="M15.2188 2C17.6875 2 19.9688 2.46875 22.0625 3.40625C24.1719 4.34375 25.8047 5.64062 26.9609 7.29688C27.1797 7.625 27.3125 7.85938 27.3594 8C27.4219 8.14062 27.4531 8.36719 27.4531 8.67969V43.3438C27.4531 43.6406 27.3594 43.875 27.1719 44.0469C27 44.2344 26.7812 44.3281 26.5156 44.3281C26.2188 44.3281 25.9453 44.2188 25.6953 44C24.8672 43.2812 23.9453 42.6641 22.9297 42.1484C21.9141 41.6484 20.8359 41.2578 19.6953 40.9766C18.5547 40.7109 17.375 40.5781 16.1562 40.5781C14.2031 40.5781 12.2891 40.8984 10.4141 41.5391C8.53906 42.1953 6.85938 43.1562 5.375 44.4219C5.15625 44.6094 4.91406 44.75 4.64844 44.8438C4.39844 44.9375 4.13281 44.9844 3.85156 44.9844C3.27344 44.9844 2.82031 44.8281 2.49219 44.5156C2.16406 44.2188 2 43.7969 2 43.25V10.1797C2 9.74219 2.00781 9.42188 2.02344 9.21875C2.05469 9 2.14062 8.77344 2.28125 8.53906C3.07812 7.14844 4.16406 5.96875 5.53906 5C6.91406 4.03125 8.4375 3.28906 10.1094 2.77344C11.7969 2.25781 13.5 2 15.2188 2ZM42.7578 2C44.4766 2 46.1719 2.25781 47.8438 2.77344C49.5312 3.28906 51.0625 4.03125 52.4375 5C53.8125 5.96875 54.8984 7.14844 55.6953 8.53906C55.8359 8.75781 55.9141 8.97656 55.9297 9.19531C55.9609 9.41406 55.9766 9.74219 55.9766 10.1797V43.25C55.9766 43.7969 55.8125 44.2188 55.4844 44.5156C55.1562 44.8281 54.7031 44.9844 54.125 44.9844C53.8438 44.9844 53.5703 44.9375 53.3047 44.8438C53.0547 44.75 52.8203 44.6094 52.6016 44.4219C51.1172 43.1562 49.4375 42.1953 47.5625 41.5391C45.6875 40.8984 43.7734 40.5781 41.8203 40.5781C40.6016 40.5781 39.4219 40.7109 38.2812 40.9766C37.1406 41.2578 36.0625 41.6484 35.0469 42.1484C34.0312 42.6641 33.1094 43.2812 32.2812 44C32.0312 44.2188 31.7578 44.3281 31.4609 44.3281C31.1953 44.3281 30.9688 44.2344 30.7812 44.0469C30.6094 43.875 30.5234 43.6406 30.5234 43.3438V8.67969C30.5234 8.36719 30.5469 8.14062 30.5938 8C30.6562 7.85938 30.7969 7.625 31.0156 7.29688C32.1719 5.64062 33.7969 4.34375 35.8906 3.40625C38 2.46875 40.2891 2 42.7578 2Z"/>
</mask>
<path d="M15.2188 2C17.6875 2 19.9688 2.46875 22.0625 3.40625C24.1719 4.34375 25.8047 5.64062 26.9609 7.29688C27.1797 7.625 27.3125 7.85938 27.3594 8C27.4219 8.14062 27.4531 8.36719 27.4531 8.67969V43.3438C27.4531 43.6406 27.3594 43.875 27.1719 44.0469C27 44.2344 26.7812 44.3281 26.5156 44.3281C26.2188 44.3281 25.9453 44.2188 25.6953 44C24.8672 43.2812 23.9453 42.6641 22.9297 42.1484C21.9141 41.6484 20.8359 41.2578 19.6953 40.9766C18.5547 40.7109 17.375 40.5781 16.1562 40.5781C14.2031 40.5781 12.2891 40.8984 10.4141 41.5391C8.53906 42.1953 6.85938 43.1562 5.375 44.4219C5.15625 44.6094 4.91406 44.75 4.64844 44.8438C4.39844 44.9375 4.13281 44.9844 3.85156 44.9844C3.27344 44.9844 2.82031 44.8281 2.49219 44.5156C2.16406 44.2188 2 43.7969 2 43.25V10.1797C2 9.74219 2.00781 9.42188 2.02344 9.21875C2.05469 9 2.14062 8.77344 2.28125 8.53906C3.07812 7.14844 4.16406 5.96875 5.53906 5C6.91406 4.03125 8.4375 3.28906 10.1094 2.77344C11.7969 2.25781 13.5 2 15.2188 2ZM42.7578 2C44.4766 2 46.1719 2.25781 47.8438 2.77344C49.5312 3.28906 51.0625 4.03125 52.4375 5C53.8125 5.96875 54.8984 7.14844 55.6953 8.53906C55.8359 8.75781 55.9141 8.97656 55.9297 9.19531C55.9609 9.41406 55.9766 9.74219 55.9766 10.1797V43.25C55.9766 43.7969 55.8125 44.2188 55.4844 44.5156C55.1562 44.8281 54.7031 44.9844 54.125 44.9844C53.8438 44.9844 53.5703 44.9375 53.3047 44.8438C53.0547 44.75 52.8203 44.6094 52.6016 44.4219C51.1172 43.1562 49.4375 42.1953 47.5625 41.5391C45.6875 40.8984 43.7734 40.5781 41.8203 40.5781C40.6016 40.5781 39.4219 40.7109 38.2812 40.9766C37.1406 41.2578 36.0625 41.6484 35.0469 42.1484C34.0312 42.6641 33.1094 43.2812 32.2812 44C32.0312 44.2188 31.7578 44.3281 31.4609 44.3281C31.1953 44.3281 30.9688 44.2344 30.7812 44.0469C30.6094 43.875 30.5234 43.6406 30.5234 43.3438V8.67969C30.5234 8.36719 30.5469 8.14062 30.5938 8C30.6562 7.85938 30.7969 7.625 31.0156 7.29688C32.1719 5.64062 33.7969 4.34375 35.8906 3.40625C38 2.46875 40.2891 2 42.7578 2Z" fill="url(#paint0_linear_191_62)"/>
<path d="M22.0625 3.40625L21.2452 5.23162L21.2502 5.23387L22.0625 3.40625ZM26.9609 7.29688L28.625 6.18747C28.6171 6.17557 28.609 6.16376 28.6009 6.15203L26.9609 7.29688ZM27.3594 8L25.462 8.63246C25.4824 8.69348 25.5056 8.75349 25.5318 8.81228L27.3594 8ZM27.1719 44.0469L25.8204 42.5726C25.7777 42.6117 25.7367 42.6527 25.6976 42.6954L27.1719 44.0469ZM25.6953 44L27.0123 42.4948L27.0063 42.4896L25.6953 44ZM22.9297 42.1484L23.8351 40.3651C23.8278 40.3614 23.8204 40.3577 23.8131 40.3541L22.9297 42.1484ZM19.6953 40.9766L20.1741 39.0347C20.1657 39.0327 20.1573 39.0306 20.1489 39.0287L19.6953 40.9766ZM10.4141 41.5391L9.76743 39.6465C9.76273 39.6481 9.75805 39.6497 9.75336 39.6513L10.4141 41.5391ZM5.375 44.4219L4.07738 42.9L4.07342 42.9034L5.375 44.4219ZM4.64844 44.8438L3.9828 42.9578C3.97055 42.9621 3.95835 42.9665 3.94619 42.9711L4.64844 44.8438ZM2.49219 44.5156L3.8715 43.0673C3.85915 43.0556 3.84666 43.044 3.83401 43.0326L2.49219 44.5156ZM2.02344 9.21875L0.0435386 8.93591C0.0373979 8.97889 0.0326586 9.02206 0.0293283 9.06536L2.02344 9.21875ZM2.28125 8.53906L3.99624 9.56805C4.00312 9.55658 4.00988 9.54505 4.01654 9.53344L2.28125 8.53906ZM10.1094 2.77344L9.52494 0.860729L9.51995 0.862267L10.1094 2.77344ZM47.8438 2.77344L47.2543 4.68462L47.2593 4.68614L47.8438 2.77344ZM55.6953 8.53906L53.96 9.53344C53.9769 9.56293 53.9946 9.59199 54.013 9.62058L55.6953 8.53906ZM55.9297 9.19531L53.9348 9.33781C53.9381 9.38475 53.9431 9.43156 53.9498 9.47816L55.9297 9.19531ZM55.4844 44.5156L54.1425 43.0326C54.1299 43.044 54.1174 43.0556 54.1051 43.0673L55.4844 44.5156ZM53.3047 44.8438L52.6024 46.7164C52.6146 46.721 52.6268 46.7254 52.639 46.7297L53.3047 44.8438ZM52.6016 44.4219L53.9031 42.9034L53.8992 42.9L52.6016 44.4219ZM47.5625 41.5391L48.2232 39.6513C48.2185 39.6497 48.2138 39.6481 48.2091 39.6465L47.5625 41.5391ZM38.2812 40.9766L37.8276 39.0287C37.8192 39.0306 37.8108 39.0327 37.8024 39.0347L38.2812 40.9766ZM35.0469 42.1484L34.1635 40.3541C34.1561 40.3577 34.1488 40.3614 34.1415 40.3651L35.0469 42.1484ZM32.2812 44L30.9703 42.4896L30.9642 42.4948L32.2812 44ZM30.5938 8L28.7661 7.18772C28.74 7.24651 28.7167 7.30652 28.6964 7.36755L30.5938 8ZM31.0156 7.29688L29.3757 6.15203C29.3675 6.16376 29.3595 6.17557 29.3515 6.18747L31.0156 7.29688ZM35.8906 3.40625L35.0783 1.57862L35.0733 1.58088L35.8906 3.40625ZM15.2188 2V4C17.4276 4 19.4277 4.41781 21.2452 5.23162L22.0625 3.40625L22.8798 1.58088C20.5098 0.519688 17.9474 0 15.2188 0V2ZM22.0625 3.40625L21.2502 5.23387C23.0752 6.04496 24.4017 7.1249 25.321 8.44172L26.9609 7.29688L28.6009 6.15203C27.2076 4.15635 25.2686 2.64254 22.8748 1.57863L22.0625 3.40625ZM26.9609 7.29688L25.2968 8.40628C25.3905 8.54672 25.4501 8.64397 25.4846 8.70477C25.5014 8.73445 25.5066 8.74559 25.5045 8.74119C25.504 8.74024 25.4848 8.70081 25.462 8.63246L27.3594 8L29.2567 7.36755C29.1138 6.93858 28.8314 6.49701 28.625 6.18747L26.9609 7.29688ZM27.3594 8L25.5318 8.81228C25.4928 8.72461 25.4725 8.65535 25.4626 8.61635C25.4523 8.57622 25.4489 8.55193 25.4484 8.54867C25.4479 8.54471 25.4492 8.55339 25.4506 8.57717C25.452 8.60059 25.4531 8.63432 25.4531 8.67969H27.4531H29.4531C29.4531 8.31691 29.4293 7.73293 29.187 7.18772L27.3594 8ZM27.4531 8.67969H25.4531V43.3438H27.4531H29.4531V8.67969H27.4531ZM27.4531 43.3438H25.4531C25.4531 43.2818 25.4632 43.1562 25.5259 42.9994C25.5913 42.8357 25.6947 42.6878 25.8204 42.5726L27.1719 44.0469L28.5233 45.5212C29.1941 44.9063 29.4531 44.0986 29.4531 43.3438H27.4531ZM27.1719 44.0469L25.6976 42.6954C25.7899 42.5947 25.922 42.492 26.0911 42.4195C26.2581 42.348 26.4091 42.3281 26.5156 42.3281V44.3281V46.3281C27.3138 46.3281 28.0769 46.0193 28.6462 45.3983L27.1719 44.0469ZM26.5156 44.3281V42.3281C26.6195 42.3281 26.7292 42.3486 26.8307 42.3891C26.9289 42.4284 26.9887 42.4742 27.0123 42.4948L25.6953 44L24.3783 45.5052C24.9464 46.0022 25.6759 46.3281 26.5156 46.3281V44.3281ZM25.6953 44L27.0063 42.4896C26.0499 41.6595 24.9909 40.9519 23.8351 40.3651L22.9297 42.1484L22.0243 43.9318C22.8997 44.3762 23.6845 44.903 24.3844 45.5104L25.6953 44ZM22.9297 42.1484L23.8131 40.3541C22.6635 39.7882 21.4492 39.3491 20.1741 39.0347L19.6953 40.9766L19.2165 42.9184C20.2226 43.1665 21.1646 43.5087 22.0463 43.9428L22.9297 42.1484ZM19.6953 40.9766L20.1489 39.0287C18.8537 38.727 17.5215 38.5781 16.1562 38.5781V40.5781V42.5781C17.2285 42.5781 18.2557 42.6948 19.2417 42.9244L19.6953 40.9766ZM16.1562 40.5781V38.5781C13.9799 38.5781 11.8475 38.9358 9.76743 39.6465L10.4141 41.5391L11.0607 43.4316C12.7306 42.8611 14.4263 42.5781 16.1562 42.5781V40.5781ZM10.4141 41.5391L9.75336 39.6513C7.64967 40.3876 5.75315 41.4712 4.07738 42.9L5.375 44.4219L6.67262 45.9438C7.9656 44.8413 9.42846 44.003 11.0748 43.4268L10.4141 41.5391ZM5.375 44.4219L4.07342 42.9034C4.03778 42.9339 4.01022 42.9481 3.9828 42.9578L4.64844 44.8438L5.31408 46.7297C5.81791 46.5519 6.27472 46.2848 6.67658 45.9404L5.375 44.4219ZM4.64844 44.8438L3.94619 42.9711C3.93255 42.9762 3.90593 42.9844 3.85156 42.9844V44.9844V46.9844C4.3597 46.9844 4.86433 46.8988 5.35068 46.7164L4.64844 44.8438ZM3.85156 44.9844V42.9844C3.74007 42.9844 3.70875 42.9691 3.73011 42.9764C3.74144 42.9804 3.76311 42.9892 3.79071 43.0057C3.81861 43.0225 3.84636 43.0434 3.8715 43.0673L2.49219 44.5156L1.11288 45.9639C1.9075 46.7207 2.9074 46.9844 3.85156 46.9844V44.9844ZM2.49219 44.5156L3.83401 43.0326C3.86639 43.0618 3.89856 43.0979 3.92703 43.1395C3.9554 43.1809 3.97472 43.22 3.98706 43.2517C4.01147 43.3144 4 43.3257 4 43.25H2H0C0 44.2184 0.307313 45.2359 1.15036 45.9987L2.49219 44.5156ZM2 43.25H4V10.1797H2H0V43.25H2ZM2 10.1797H4C4 9.7492 4.00819 9.49377 4.01755 9.37214L2.02344 9.21875L0.0293283 9.06536C0.00743437 9.34998 0 9.73517 0 10.1797H2ZM2.02344 9.21875L4.00334 9.50159C3.9891 9.60127 3.96124 9.62638 3.99624 9.56805L2.28125 8.53906L0.566264 7.51007C0.320009 7.92049 0.120278 8.39873 0.0435386 8.93591L2.02344 9.21875ZM2.28125 8.53906L4.01654 9.53344C4.66091 8.40894 5.54281 7.4439 6.69097 6.63496L5.53906 5L4.38716 3.36504C2.78532 4.4936 1.49534 5.88794 0.545965 7.54469L2.28125 8.53906ZM5.53906 5L6.69097 6.63496C7.88733 5.79208 9.21963 5.1408 10.6988 4.68461L10.1094 2.77344L9.51995 0.862267C7.65537 1.43732 5.9408 2.27042 4.38716 3.36504L5.53906 5ZM10.1094 2.77344L10.6938 4.68614C12.197 4.22684 13.7033 4 15.2188 4V2V0C13.2967 0 11.3968 0.288788 9.52494 0.860733L10.1094 2.77344ZM42.7578 2V4C44.2732 4 45.7699 4.2268 47.2543 4.68461L47.8438 2.77344L48.4332 0.862267C46.5738 0.288822 44.68 0 42.7578 0V2ZM47.8438 2.77344L47.2593 4.68614C48.7541 5.14289 50.0922 5.79416 51.2856 6.63496L52.4375 5L53.5894 3.36504C52.0328 2.26834 50.3084 1.43523 48.4282 0.860733L47.8438 2.77344ZM52.4375 5L51.2856 6.63496C52.4338 7.4439 53.3156 8.40894 53.96 9.53344L55.6953 8.53906L57.4306 7.54469C56.4812 5.88794 55.1912 4.4936 53.5894 3.36504L52.4375 5ZM55.6953 8.53906L54.013 9.62058C54.006 9.60982 53.9471 9.51035 53.9348 9.33781L55.9297 9.19531L57.9246 9.05282C57.881 8.44278 57.6658 7.9058 57.3777 7.45755L55.6953 8.53906ZM55.9297 9.19531L53.9498 9.47816C53.9603 9.55155 53.9766 9.7641 53.9766 10.1797H55.9766H57.9766C57.9766 9.72028 57.9616 9.27657 57.9096 8.91247L55.9297 9.19531ZM55.9766 10.1797H53.9766V43.25H55.9766H57.9766V10.1797H55.9766ZM55.9766 43.25H53.9766C53.9766 43.3257 53.9651 43.3144 53.9895 43.2517C54.0018 43.22 54.0212 43.1809 54.0495 43.1395C54.078 43.0979 54.1102 43.0618 54.1425 43.0326L55.4844 44.5156L56.8262 45.9987C57.6693 45.2359 57.9766 44.2184 57.9766 43.25H55.9766ZM55.4844 44.5156L54.1051 43.0673C54.1302 43.0434 54.158 43.0225 54.1859 43.0057C54.2134 42.9892 54.2351 42.9804 54.2465 42.9764C54.2678 42.9691 54.2365 42.9844 54.125 42.9844V44.9844V46.9844C55.0692 46.9844 56.0691 46.7207 56.8637 45.9639L55.4844 44.5156ZM54.125 44.9844V42.9844C54.0708 42.9844 54.0225 42.9762 53.9703 42.9578L53.3047 44.8438L52.639 46.7297C53.1181 46.8988 53.6167 46.9844 54.125 46.9844V44.9844ZM53.3047 44.8438L54.0069 42.9711C53.9926 42.9657 53.9584 42.9508 53.9031 42.9034L52.6016 44.4219L51.3 45.9404C51.6822 46.268 52.1168 46.5343 52.6024 46.7164L53.3047 44.8438ZM52.6016 44.4219L53.8992 42.9C52.2234 41.4712 50.3269 40.3876 48.2232 39.6513L47.5625 41.5391L46.9018 43.4268C48.5481 44.003 50.011 44.8413 51.3039 45.9438L52.6016 44.4219ZM47.5625 41.5391L48.2091 39.6465C46.129 38.9358 43.9966 38.5781 41.8203 38.5781V40.5781V42.5781C43.5502 42.5781 45.246 42.8611 46.9159 43.4316L47.5625 41.5391ZM41.8203 40.5781V38.5781C40.4551 38.5781 39.1229 38.727 37.8276 39.0287L38.2812 40.9766L38.7349 42.9244C39.7208 42.6948 40.7481 42.5781 41.8203 42.5781V40.5781ZM38.2812 40.9766L37.8024 39.0347C36.5273 39.3491 35.3131 39.7882 34.1635 40.3541L35.0469 42.1484L35.9302 43.9428C36.8119 43.5087 37.7539 43.1665 38.7601 42.9184L38.2812 40.9766ZM35.0469 42.1484L34.1415 40.3651C32.9857 40.9519 31.9267 41.6595 30.9703 42.4896L32.2812 44L33.5922 45.5104C34.2921 44.903 35.0768 44.3762 35.9523 43.9318L35.0469 42.1484ZM32.2812 44L30.9642 42.4948C30.9879 42.4742 31.0477 42.4284 31.1459 42.3891C31.2474 42.3486 31.357 42.3281 31.4609 42.3281V44.3281V46.3281C32.3007 46.3281 33.0302 46.0022 33.5983 45.5052L32.2812 44ZM31.4609 44.3281V42.3281C31.5685 42.3281 31.7077 42.3482 31.8565 42.4098C32.0053 42.4714 32.1186 42.5558 32.1955 42.6327L30.7812 44.0469L29.367 45.4611C29.9303 46.0244 30.6659 46.3281 31.4609 46.3281V44.3281ZM30.7812 44.0469L32.1955 42.6327C32.3205 42.7577 32.4114 42.9058 32.4656 43.0537C32.5172 43.1944 32.5234 43.3006 32.5234 43.3438H30.5234H28.5234C28.5234 44.0461 28.7401 44.8342 29.367 45.4611L30.7812 44.0469ZM30.5234 43.3438H32.5234V8.67969H30.5234H28.5234V43.3438H30.5234ZM30.5234 8.67969H32.5234C32.5234 8.62612 32.5245 8.58265 32.5259 8.5483C32.5275 8.51364 32.5293 8.49188 32.5304 8.48119C32.5316 8.46984 32.5313 8.47665 32.5273 8.49773C32.5252 8.50876 32.5217 8.52561 32.5162 8.54733C32.5107 8.56893 32.5027 8.5978 32.4911 8.63246L30.5938 8L28.6964 7.36755C28.541 7.83377 28.5234 8.33606 28.5234 8.67969H30.5234ZM30.5938 8L32.4214 8.81228C32.4095 8.83894 32.4046 8.84659 32.4139 8.82952C32.422 8.81441 32.4371 8.78778 32.4611 8.74774C32.5097 8.66673 32.581 8.55438 32.6797 8.40628L31.0156 7.29688L29.3515 6.18747C29.1375 6.50857 28.9063 6.87239 28.7661 7.18772L30.5938 8ZM31.0156 7.29688L32.6555 8.44172C33.5773 7.12131 34.8991 6.04153 36.708 5.23162L35.8906 3.40625L35.0733 1.58088C32.6946 2.64597 30.7664 4.15994 29.3757 6.15203L31.0156 7.29688ZM35.8906 3.40625L36.7029 5.23387C38.5391 4.41778 40.5491 4 42.7578 4V2V0C40.029 0 37.4609 0.519718 35.0783 1.57863L35.8906 3.40625Z" fill="white" mask="url(#path-1-outside-1_191_62)"/>
<defs>
<linearGradient id="paint0_linear_191_62" x1="29.0234" y1="-5.5625" x2="29.0234" y2="51.4375" gradientUnits="userSpaceOnUse">
<stop stop-color="#00F7FF"/>
<stop offset="1" stop-color="#016C78"/>
</linearGradient>
</defs>
</svg>
