<svg width="56" height="51" viewBox="0 0 56 51" fill="none" xmlns="http://www.w3.org/2000/svg">
<mask id="path-1-outside-1_191_2" maskUnits="userSpaceOnUse" x="-0.781158" y="-0.781128" width="57" height="52" fill="black">
<rect fill="white" x="-0.781158" y="-0.781128" width="57" height="52"/>
<path d="M2.00009 31.7657C3.06259 32.6251 4.31259 33.4454 5.75009 34.2267C7.18759 35.0079 8.73447 35.7032 10.3907 36.3126C12.047 36.922 13.7267 37.4064 15.4298 37.7657C17.1329 38.1095 18.7813 38.2814 20.3751 38.2814C22.1251 38.2814 23.6563 38.1486 24.9688 37.8829C26.297 37.6173 27.4923 37.2657 28.5548 36.8282C29.6329 36.3751 30.6642 35.8751 31.6485 35.3282C26.4454 31.1251 21.836 26.8126 17.8204 22.3907C13.8048 17.9689 10.2423 13.4923 7.1329 8.96106C10.3829 11.8673 13.7501 14.6486 17.2345 17.3048C20.7345 19.9454 24.3595 22.4532 28.1095 24.8282C25.3282 21.7345 22.6876 18.6798 20.1876 15.6642C17.6876 12.6329 15.3829 9.4845 13.2735 6.21887C14.336 7.34387 15.6642 8.64856 17.2579 10.1329C18.8517 11.6173 20.5938 13.1642 22.4845 14.7736C24.3907 16.3829 26.3204 17.9611 28.2735 19.5079C30.2423 21.0548 32.1173 22.4689 33.8985 23.7501C35.6954 25.0314 37.2892 26.0704 38.6798 26.8673C38.9923 26.0861 39.3048 24.9845 39.6173 23.5626C39.9298 22.1407 40.086 20.7189 40.086 19.297C40.086 16.672 39.7501 14.2892 39.0782 12.1486C38.422 9.99231 37.6173 8.07043 36.6642 6.38293C35.711 4.69543 34.7892 3.2345 33.8985 2.00012C37.0704 3.90637 39.7188 6.02356 41.8438 8.35168C43.9845 10.6798 45.6798 13.0548 46.9298 15.4767C48.1954 17.8829 49.0938 20.2032 49.6251 22.4376C50.172 24.6564 50.4454 26.6173 50.4454 28.3204C50.4454 29.0704 50.3985 30.0314 50.3048 31.2032C50.211 32.3595 49.9532 33.5157 49.5313 34.672C50.7813 36.2345 51.7267 37.7345 52.3673 39.172C53.0079 40.6095 53.4376 41.9064 53.6563 43.0626C53.8751 44.2189 53.9845 45.172 53.9845 45.922C53.9845 46.3282 53.9532 46.6876 53.8907 47.0001C53.8438 47.3282 53.7892 47.6173 53.7267 47.8673C53.6329 48.2111 53.5157 48.3595 53.3751 48.3126C53.2345 48.2657 53.1173 48.1486 53.0235 47.9611C52.8048 47.5861 52.4532 47.0782 51.9688 46.4376C51.4845 45.8126 50.7892 45.2423 49.8829 44.7267C48.9923 44.2267 47.836 43.9767 46.4142 43.9767C45.3985 43.9767 44.4532 44.1095 43.5782 44.3751C42.7188 44.6564 41.8517 45.0001 40.9767 45.4064C40.1173 45.8126 39.1798 46.2189 38.1642 46.6251C37.1485 47.047 35.9845 47.3907 34.672 47.6564C33.3595 47.9376 31.8204 48.0782 30.0548 48.0782C27.2892 48.0782 24.672 47.7267 22.2032 47.0236C19.7345 46.3204 17.4454 45.3751 15.336 44.1876C13.2267 43.0157 11.3126 41.7189 9.59384 40.297C7.87509 38.8595 6.37509 37.4064 5.09384 35.9376C3.81259 34.4532 2.78134 33.0626 2.00009 31.7657Z"/>
</mask>
<path d="M2.00009 31.7657C3.06259 32.6251 4.31259 33.4454 5.75009 34.2267C7.18759 35.0079 8.73447 35.7032 10.3907 36.3126C12.047 36.922 13.7267 37.4064 15.4298 37.7657C17.1329 38.1095 18.7813 38.2814 20.3751 38.2814C22.1251 38.2814 23.6563 38.1486 24.9688 37.8829C26.297 37.6173 27.4923 37.2657 28.5548 36.8282C29.6329 36.3751 30.6642 35.8751 31.6485 35.3282C26.4454 31.1251 21.836 26.8126 17.8204 22.3907C13.8048 17.9689 10.2423 13.4923 7.1329 8.96106C10.3829 11.8673 13.7501 14.6486 17.2345 17.3048C20.7345 19.9454 24.3595 22.4532 28.1095 24.8282C25.3282 21.7345 22.6876 18.6798 20.1876 15.6642C17.6876 12.6329 15.3829 9.4845 13.2735 6.21887C14.336 7.34387 15.6642 8.64856 17.2579 10.1329C18.8517 11.6173 20.5938 13.1642 22.4845 14.7736C24.3907 16.3829 26.3204 17.9611 28.2735 19.5079C30.2423 21.0548 32.1173 22.4689 33.8985 23.7501C35.6954 25.0314 37.2892 26.0704 38.6798 26.8673C38.9923 26.0861 39.3048 24.9845 39.6173 23.5626C39.9298 22.1407 40.086 20.7189 40.086 19.297C40.086 16.672 39.7501 14.2892 39.0782 12.1486C38.422 9.99231 37.6173 8.07043 36.6642 6.38293C35.711 4.69543 34.7892 3.2345 33.8985 2.00012C37.0704 3.90637 39.7188 6.02356 41.8438 8.35168C43.9845 10.6798 45.6798 13.0548 46.9298 15.4767C48.1954 17.8829 49.0938 20.2032 49.6251 22.4376C50.172 24.6564 50.4454 26.6173 50.4454 28.3204C50.4454 29.0704 50.3985 30.0314 50.3048 31.2032C50.211 32.3595 49.9532 33.5157 49.5313 34.672C50.7813 36.2345 51.7267 37.7345 52.3673 39.172C53.0079 40.6095 53.4376 41.9064 53.6563 43.0626C53.8751 44.2189 53.9845 45.172 53.9845 45.922C53.9845 46.3282 53.9532 46.6876 53.8907 47.0001C53.8438 47.3282 53.7892 47.6173 53.7267 47.8673C53.6329 48.2111 53.5157 48.3595 53.3751 48.3126C53.2345 48.2657 53.1173 48.1486 53.0235 47.9611C52.8048 47.5861 52.4532 47.0782 51.9688 46.4376C51.4845 45.8126 50.7892 45.2423 49.8829 44.7267C48.9923 44.2267 47.836 43.9767 46.4142 43.9767C45.3985 43.9767 44.4532 44.1095 43.5782 44.3751C42.7188 44.6564 41.8517 45.0001 40.9767 45.4064C40.1173 45.8126 39.1798 46.2189 38.1642 46.6251C37.1485 47.047 35.9845 47.3907 34.672 47.6564C33.3595 47.9376 31.8204 48.0782 30.0548 48.0782C27.2892 48.0782 24.672 47.7267 22.2032 47.0236C19.7345 46.3204 17.4454 45.3751 15.336 44.1876C13.2267 43.0157 11.3126 41.7189 9.59384 40.297C7.87509 38.8595 6.37509 37.4064 5.09384 35.9376C3.81259 34.4532 2.78134 33.0626 2.00009 31.7657Z" fill="url(#paint0_linear_191_2)"/>
<path d="M2.00009 31.7657L3.25783 30.2107C2.50302 29.6002 1.4188 29.6199 0.686678 30.2575C-0.0454454 30.895 -0.214014 31.9662 0.28693 32.7978L2.00009 31.7657ZM15.4298 37.7657L15.0169 39.7227C15.0226 39.7239 15.0283 39.7251 15.0341 39.7262L15.4298 37.7657ZM24.9688 37.8829L24.5766 35.9218L24.5721 35.9227L24.9688 37.8829ZM28.5548 36.8282L29.3163 38.6776C29.3208 38.6758 29.3252 38.6739 29.3297 38.672L28.5548 36.8282ZM31.6485 35.3282L32.6198 37.0766C33.2011 36.7536 33.5839 36.1629 33.6411 35.5004C33.6983 34.8379 33.4226 34.1903 32.9053 33.7725L31.6485 35.3282ZM7.1329 8.96106L8.46607 7.4702C7.71166 6.79558 6.5722 6.79084 5.81219 7.45916C5.05219 8.12747 4.9112 9.25819 5.48383 10.0927L7.1329 8.96106ZM17.2345 17.3048L16.0219 18.8954L16.0299 18.9014L17.2345 17.3048ZM28.1095 24.8282L27.0394 26.5179C27.8834 27.0524 28.9924 26.8822 29.6371 26.1191C30.2819 25.356 30.2647 24.2341 29.5968 23.4911L28.1095 24.8282ZM20.1876 15.6642L18.6446 16.9367L18.6479 16.9406L20.1876 15.6642ZM13.2735 6.21887L14.7276 4.84563C14.0178 4.09416 12.8524 4.00729 12.0391 4.64525C11.2259 5.28321 11.0327 6.43578 11.5935 7.30404L13.2735 6.21887ZM22.4845 14.7736L21.1881 16.2965L21.1943 16.3018L22.4845 14.7736ZM28.2735 19.5079L27.0318 21.0758L27.0379 21.0806L28.2735 19.5079ZM33.8985 23.7501L32.7307 25.3737L32.7374 25.3785L33.8985 23.7501ZM38.6798 26.8673L37.6854 28.6026C38.1878 28.8905 38.7904 28.9465 39.3373 28.7561C39.8841 28.5658 40.3217 28.1477 40.5367 27.6101L38.6798 26.8673ZM39.0782 12.1486L37.1649 12.7309C37.1666 12.7364 37.1683 12.742 37.17 12.7475L39.0782 12.1486ZM33.8985 2.00012L34.9288 0.285881C34.1148 -0.203308 33.069 -0.0526314 32.4263 0.646446C31.7835 1.34552 31.721 2.40022 32.2766 3.17035L33.8985 2.00012ZM41.8438 8.35168L40.3666 9.7L40.3716 9.70537L41.8438 8.35168ZM46.9298 15.4767L45.1525 16.394C45.1549 16.3986 45.1573 16.4031 45.1597 16.4077L46.9298 15.4767ZM49.6251 22.4376L47.6793 22.9002C47.6806 22.9056 47.6819 22.9109 47.6832 22.9163L49.6251 22.4376ZM50.3048 31.2032L52.2982 31.3649L52.2984 31.3627L50.3048 31.2032ZM49.5313 34.672L47.6525 33.9865C47.4131 34.6426 47.5333 35.376 47.9696 35.9214L49.5313 34.672ZM53.8907 47.0001L51.9296 46.6079C51.9223 46.6442 51.916 46.6806 51.9108 46.7173L53.8907 47.0001ZM53.7267 47.8673L55.6562 48.3935C55.6599 48.3799 55.6635 48.3661 55.6669 48.3524L53.7267 47.8673ZM53.0235 47.9611L54.8124 47.0666C54.7932 47.0282 54.7727 46.9904 54.7511 46.9533L53.0235 47.9611ZM51.9688 46.4376L53.5642 45.2314C53.5594 45.2251 53.5545 45.2188 53.5497 45.2125L51.9688 46.4376ZM49.8829 44.7267L50.872 42.9883L50.862 42.9827L49.8829 44.7267ZM43.5782 44.3751L42.9973 42.4614C42.9835 42.4655 42.9698 42.4699 42.9561 42.4743L43.5782 44.3751ZM40.9767 45.4064L40.1344 43.5923L40.1219 43.5982L40.9767 45.4064ZM38.1642 46.6251L37.4214 44.7682C37.4132 44.7714 37.4051 44.7748 37.3969 44.7781L38.1642 46.6251ZM34.672 47.6564L34.2752 45.6961C34.2678 45.6976 34.2603 45.6992 34.2529 45.7008L34.672 47.6564ZM15.336 44.1876L16.3172 42.4448L16.3073 42.4393L15.336 44.1876ZM9.59384 40.297L8.31071 41.8312L8.31899 41.838L9.59384 40.297ZM5.09384 35.9376L3.57982 37.2445L3.5867 37.2524L5.09384 35.9376ZM2.00009 31.7657L0.742353 33.3208C1.91571 34.2698 3.27089 35.1556 4.79506 35.9839L5.75009 34.2267L6.70512 32.4694C5.35429 31.7353 4.20947 30.9804 3.25783 30.2107L2.00009 31.7657ZM5.75009 34.2267L4.79506 35.9839C6.32404 36.8149 7.95999 37.5494 9.70013 38.1896L10.3907 36.3126L11.0813 34.4356C9.50895 33.8571 8.05114 33.201 6.70512 32.4694L5.75009 34.2267ZM10.3907 36.3126L9.70013 38.1896C11.4456 38.8318 13.2181 39.3431 15.0169 39.7227L15.4298 37.7657L15.8427 35.8088C14.2352 35.4697 12.6483 35.0122 11.0813 34.4356L10.3907 36.3126ZM15.4298 37.7657L15.0341 39.7262C16.8559 40.0939 18.6372 40.2814 20.3751 40.2814V38.2814V36.2814C18.9255 36.2814 17.4099 36.1251 15.8255 35.8053L15.4298 37.7657ZM20.3751 38.2814V40.2814C22.2202 40.2814 23.8898 40.1419 25.3656 39.8432L24.9688 37.8829L24.5721 35.9227C23.4229 36.1553 22.0299 36.2814 20.3751 36.2814V38.2814ZM24.9688 37.8829L25.3611 39.8441C26.7939 39.5575 28.1157 39.172 29.3163 38.6776L28.5548 36.8282L27.7933 34.9789C26.8689 35.3595 25.8001 35.6771 24.5766 35.9218L24.9688 37.8829ZM28.5548 36.8282L29.3297 38.672C30.4724 38.1918 31.5694 37.6601 32.6198 37.0766L31.6485 35.3282L30.6772 33.5799C29.7589 34.0901 28.7934 34.5585 27.7799 34.9845L28.5548 36.8282ZM31.6485 35.3282L32.9053 33.7725C27.7728 29.6264 23.2399 25.3836 19.301 21.0462L17.8204 22.3907L16.3398 23.7353C20.4321 28.2416 25.118 32.6239 30.3917 36.884L31.6485 35.3282ZM17.8204 22.3907L19.301 21.0462C15.3411 16.6857 11.8359 12.2799 8.78198 7.82945L7.1329 8.96106L5.48383 10.0927C8.64867 14.7048 12.2685 19.2521 16.3398 23.7353L17.8204 22.3907ZM7.1329 8.96106L5.79973 10.4519C9.08883 13.3931 12.4963 16.2076 16.0219 18.8953L17.2345 17.3048L18.447 15.7143C15.0039 13.0895 11.677 10.3415 8.46607 7.4702L7.1329 8.96106ZM17.2345 17.3048L16.0299 18.9014C19.574 21.5753 23.2439 24.1141 27.0394 26.5179L28.1095 24.8282L29.1796 23.1386C25.4751 20.7924 21.895 18.3156 18.439 15.7082L17.2345 17.3048ZM28.1095 24.8282L29.5968 23.4911C26.8323 20.4161 24.2092 17.3816 21.7273 14.3877L20.1876 15.6642L18.6479 16.9406C21.1659 19.978 23.8241 23.0529 26.6221 26.1653L28.1095 24.8282ZM20.1876 15.6642L21.7305 14.3917C19.2793 11.4195 17.0204 8.33358 14.9535 5.1337L13.2735 6.21887L11.5935 7.30404C13.7454 10.6354 16.0959 13.8464 18.6446 16.9367L20.1876 15.6642ZM13.2735 6.21887L11.8195 7.59212C12.9204 8.75781 14.2813 10.0937 15.8948 11.5965L17.2579 10.1329L18.621 8.66939C17.047 7.20344 15.7516 5.92993 14.7276 4.84563L13.2735 6.21887ZM17.2579 10.1329L15.8948 11.5965C17.5131 13.1037 19.2778 14.6704 21.1881 16.2965L22.4845 14.7736L23.7809 13.2506C21.9098 11.6579 20.1902 10.1309 18.621 8.66939L17.2579 10.1329ZM22.4845 14.7736L21.1943 16.3018C23.1164 17.9246 25.0623 19.5159 27.0318 21.0758L28.2735 19.5079L29.5153 17.9401C27.5785 16.4062 25.665 14.8413 23.7747 13.2454L22.4845 14.7736ZM28.2735 19.5079L27.0379 21.0806C29.0258 22.6425 30.9235 24.0739 32.7307 25.3737L33.8985 23.7501L35.0664 22.1265C33.311 20.8639 31.4587 19.4671 29.5092 17.9353L28.2735 19.5079ZM33.8985 23.7501L32.7374 25.3785C34.5696 26.685 36.2207 27.7633 37.6854 28.6026L38.6798 26.8673L39.6742 25.132C38.3576 24.3776 36.8212 23.3777 35.0597 22.1217L33.8985 23.7501ZM38.6798 26.8673L40.5367 27.6101C40.9088 26.6798 41.249 25.4556 41.5707 23.9919L39.6173 23.5626L37.6639 23.1333C37.3606 24.5134 37.0757 25.4923 36.8228 26.1245L38.6798 26.8673ZM39.6173 23.5626L41.5707 23.9919C41.9134 22.4324 42.086 20.8667 42.086 19.297H40.086H38.086C38.086 20.5711 37.9462 21.8491 37.6639 23.1333L39.6173 23.5626ZM40.086 19.297H42.086C42.086 16.5025 41.7285 13.9138 40.9864 11.5496L39.0782 12.1486L37.17 12.7475C37.7717 14.6646 38.086 16.8415 38.086 19.297H40.086ZM39.0782 12.1486L40.9916 11.5662C40.2995 9.29239 39.441 7.23252 38.4056 5.39935L36.6642 6.38293L34.9227 7.36652C35.7936 8.90834 36.5444 10.6922 37.1649 12.7309L39.0782 12.1486ZM36.6642 6.38293L38.4056 5.39935C37.4254 3.66392 36.4641 2.1378 35.5204 0.829891L33.8985 2.00012L32.2766 3.17035C33.1142 4.33119 33.9967 5.72695 34.9227 7.36652L36.6642 6.38293ZM33.8985 2.00012L32.8683 3.71436C35.9023 5.53777 38.3925 7.53715 40.3667 9.69999L41.8438 8.35168L43.321 7.00338C41.0452 4.50997 38.2385 2.27497 34.9288 0.285881L33.8985 2.00012ZM41.8438 8.35168L40.3716 9.70537C42.4104 11.9228 43.9961 14.1535 45.1525 16.394L46.9298 15.4767L48.707 14.5594C47.3634 11.9562 45.5585 9.43687 43.3161 6.998L41.8438 8.35168ZM46.9298 15.4767L45.1597 16.4077C46.3612 18.6921 47.1931 20.8553 47.6793 22.9002L49.6251 22.4376L51.5709 21.975C50.9946 19.5512 50.0296 17.0738 48.6999 14.5457L46.9298 15.4767ZM49.6251 22.4376L47.6832 22.9163C48.2037 25.028 48.4454 26.8227 48.4454 28.3204H50.4454H52.4454C52.4454 26.4119 52.1402 24.2848 51.567 21.959L49.6251 22.4376ZM50.4454 28.3204H48.4454C48.4454 28.9963 48.4027 29.8989 48.3111 31.0438L50.3048 31.2032L52.2984 31.3627C52.3943 30.1639 52.4454 29.1446 52.4454 28.3204H50.4454ZM50.3048 31.2032L48.3113 31.0416C48.2329 32.0083 48.0166 32.9886 47.6525 33.9865L49.5313 34.672L51.4102 35.3575C51.8899 34.0429 52.1891 32.7107 52.2982 31.3649L50.3048 31.2032ZM49.5313 34.672L47.9696 35.9214C49.1404 37.3848 49.9851 38.7399 50.5405 39.9861L52.3673 39.172L54.1941 38.3579C53.4682 36.7291 52.4223 35.0842 51.0931 33.4226L49.5313 34.672ZM52.3673 39.172L50.5405 39.9861C51.1377 41.3263 51.5091 42.4717 51.6912 43.4344L53.6563 43.0626L55.6215 42.6908C55.3661 41.3411 54.8781 39.8927 54.1941 38.3579L52.3673 39.172ZM53.6563 43.0626L51.6912 43.4344C51.8982 44.5288 51.9845 45.3462 51.9845 45.922H53.9845H55.9845C55.9845 44.9978 55.8519 43.909 55.6215 42.6908L53.6563 43.0626ZM53.9845 45.922H51.9845C51.9845 46.2305 51.9603 46.4541 51.9296 46.6079L53.8907 47.0001L55.8519 47.3924C55.9461 46.9212 55.9845 46.426 55.9845 45.922H53.9845ZM53.8907 47.0001L51.9108 46.7173C51.8711 46.9955 51.8283 47.2146 51.7864 47.3822L53.7267 47.8673L55.6669 48.3524C55.75 48.02 55.8166 47.661 55.8706 47.283L53.8907 47.0001ZM53.7267 47.8673L51.7971 47.3411C51.7695 47.4422 51.8016 47.2468 51.9987 46.9972C52.1117 46.854 52.3477 46.6061 52.7431 46.4503C53.1795 46.2784 53.6309 46.2897 54.0075 46.4153L53.3751 48.3126L52.7426 50.21C53.1896 50.359 53.7084 50.3693 54.2092 50.172C54.6691 49.9908 54.9666 49.6931 55.1382 49.4757C55.4525 49.0777 55.59 48.6361 55.6562 48.3935L53.7267 47.8673ZM53.3751 48.3126L54.0075 46.4153C54.5476 46.5953 54.7683 46.9784 54.8124 47.0666L53.0235 47.9611L51.2347 48.8555C51.4663 49.3187 51.9213 49.9362 52.7426 50.21L53.3751 48.3126ZM53.0235 47.9611L54.7511 46.9533C54.4718 46.4746 54.0635 45.8919 53.5642 45.2314L51.9688 46.4376L50.3735 47.6438C50.8429 48.2646 51.1377 48.6975 51.296 48.9688L53.0235 47.9611ZM51.9688 46.4376L53.5497 45.2125C52.8612 44.3242 51.9381 43.5949 50.872 42.9884L49.8829 44.7267L48.8939 46.465C49.6402 46.8897 50.1077 47.3011 50.388 47.6628L51.9688 46.4376ZM49.8829 44.7267L50.862 42.9827C49.5778 42.2618 48.0512 41.9767 46.4142 41.9767V43.9767V45.9767C47.6208 45.9767 48.4067 46.1916 48.9038 46.4707L49.8829 44.7267ZM46.4142 43.9767V41.9767C45.2232 41.9767 44.0802 42.1326 42.9973 42.4614L43.5782 44.3751L44.1592 46.2889C44.8263 46.0864 45.5738 45.9767 46.4142 45.9767V43.9767ZM43.5782 44.3751L42.9561 42.4743C42.0169 42.7817 41.0763 43.1551 40.1344 43.5924L40.9767 45.4064L41.8189 47.2204C42.627 46.8452 43.4207 46.531 44.2003 46.2759L43.5782 44.3751ZM40.9767 45.4064L40.1219 43.5982C39.3043 43.9847 38.4047 44.3748 37.4214 44.7682L38.1642 46.6251L38.9069 48.4821C39.9549 48.0629 40.9302 47.6405 41.8314 47.2145L40.9767 45.4064ZM38.1642 46.6251L37.3969 44.7781C36.5233 45.141 35.4872 45.4508 34.2752 45.6961L34.672 47.6564L35.0687 49.6166C36.4818 49.3307 37.7737 48.953 38.9314 48.4721L38.1642 46.6251ZM34.672 47.6564L34.2529 45.7008C33.1134 45.9449 31.7209 46.0782 30.0548 46.0782V48.0782V50.0782C31.9199 50.0782 33.6055 49.9303 35.091 49.612L34.672 47.6564ZM30.0548 48.0782V46.0782C27.4602 46.0782 25.0284 45.7487 22.7511 45.1001L22.2032 47.0236L21.6554 48.9471C24.3155 49.7047 27.1182 50.0782 30.0548 50.0782V48.0782ZM22.2032 47.0236L22.7511 45.1001C20.4242 44.4374 18.2817 43.5508 16.3172 42.4448L15.336 44.1876L14.3549 45.9304C16.6091 47.1995 19.0447 48.2035 21.6554 48.9471L22.2032 47.0236ZM15.336 44.1876L16.3073 42.4393C14.2966 41.3223 12.4855 40.0935 10.8687 38.756L9.59384 40.297L8.31899 41.838C10.1397 43.3442 12.1567 44.7092 14.3647 45.9359L15.336 44.1876ZM9.59384 40.297L10.877 38.7628C9.22688 37.3828 7.80412 36.0021 6.60098 34.6229L5.09384 35.9376L3.5867 37.2524C4.94606 38.8106 6.5233 40.3362 8.31073 41.8312L9.59384 40.297ZM5.09384 35.9376L6.60785 34.6308C5.38027 33.2086 4.42187 31.91 3.71325 30.7337L2.00009 31.7657L0.28693 32.7978C1.14081 34.2152 2.24491 35.6979 3.57984 37.2444L5.09384 35.9376Z" fill="white" mask="url(#path-1-outside-1_191_2)"/>
<defs>
<linearGradient id="paint0_linear_191_2" x1="28.2188" y1="-3.78113" x2="28.2188" y2="53.2189" gradientUnits="userSpaceOnUse">
<stop stop-color="#FE9135"/>
<stop offset="1" stop-color="#E23E20"/>
</linearGradient>
</defs>
</svg>
