<svg width="67" height="61" viewBox="0 0 67 61" fill="none" xmlns="http://www.w3.org/2000/svg">
<mask id="path-1-outside-1_191_60" maskUnits="userSpaceOnUse" x="-0.976562" y="-0.389282" width="68" height="62" fill="black">
<rect fill="white" x="-0.976562" y="-0.389282" width="68" height="62"/>
<path d="M62.6562 14.0482C63.4062 14.3763 63.9609 14.8217 64.3203 15.3842C64.6953 15.9467 64.8828 16.5248 64.8828 17.1185C64.8828 17.7279 64.6953 18.306 64.3203 18.8529C63.9609 19.3998 63.4062 19.8451 62.6562 20.1888L39.7109 30.7123C38.5078 31.2592 37.3984 31.6576 36.3828 31.9076C35.3828 32.1576 34.3984 32.2748 33.4297 32.2592C32.4766 32.2748 31.4922 32.1576 30.4766 31.9076C29.4766 31.6576 28.3672 31.2592 27.1484 30.7123L17.1406 26.1185L31.2969 19.4857C31.9844 19.6888 32.7266 19.7904 33.5234 19.7904C34.3672 19.7904 35.1641 19.6732 35.9141 19.4388C36.6797 19.2045 37.2969 18.892 37.7656 18.5013C38.25 18.0951 38.4922 17.6342 38.4922 17.1185C38.4922 16.6185 38.25 16.1732 37.7656 15.7826C37.2969 15.392 36.6797 15.0873 35.9141 14.8685C35.1641 14.6342 34.3672 14.517 33.5234 14.517C32.6953 14.517 31.8984 14.6342 31.1328 14.8685C30.3672 15.0873 29.7422 15.392 29.2578 15.7826C28.7734 16.1732 28.5312 16.6185 28.5312 17.1185C28.5312 17.306 28.5938 17.4779 28.7188 17.6342L13.8828 24.5951L4.22656 20.1888C3.47656 19.8451 2.91406 19.3998 2.53906 18.8529C2.17969 18.306 2 17.7279 2 17.1185C2 16.5248 2.17969 15.9467 2.53906 15.3842C2.91406 14.8217 3.47656 14.3763 4.22656 14.0482L27.1484 3.54822C28.3516 3.00134 29.4609 2.60291 30.4766 2.35291C31.4922 2.10291 32.4766 1.98572 33.4297 2.00134C34.3984 1.98572 35.3828 2.10291 36.3828 2.35291C37.3984 2.60291 38.5078 3.00134 39.7109 3.54822L62.6562 14.0482ZM17.0469 29.5873L25.8125 33.5951C28.5938 34.8607 31.1328 35.4857 33.4297 35.4701C35.7422 35.4857 38.2812 34.8607 41.0469 33.5951L56.1641 26.681V34.7435C56.1641 36.4935 55.625 38.1498 54.5469 39.7123C53.4844 41.2748 51.9609 42.6498 49.9766 43.8373C47.9922 45.0404 45.6016 45.9779 42.8047 46.6498C40.0078 47.3373 36.8828 47.681 33.4297 47.681C30.0234 47.681 26.9297 47.3373 24.1484 46.6498C21.3828 45.9779 19.0156 45.0404 17.0469 43.8373V29.5873ZM10.7188 26.681L14 28.2045V41.4701C12.9375 40.392 12.125 39.2592 11.5625 38.0717C11 36.8685 10.7188 35.7592 10.7188 34.7435V26.681ZM14 49.2748V41.4701C14.4219 41.9076 14.8906 42.3217 15.4062 42.7123C15.9219 43.1029 16.4688 43.4779 17.0469 43.8373V49.2748H14ZM12.1484 49.4388C12.1484 48.517 12.4219 47.7748 12.9688 47.2123C13.5312 46.6654 14.2734 46.392 15.1953 46.392H15.8281C16.75 46.392 17.4844 46.6654 18.0312 47.2123C18.5938 47.7748 18.875 48.517 18.875 49.4388V55.6029C18.875 56.5248 18.5938 57.2592 18.0312 57.806C17.4844 58.3685 16.75 58.6498 15.8281 58.6498H15.1953C14.2734 58.6498 13.5312 58.3685 12.9688 57.806C12.4219 57.2592 12.1484 56.5248 12.1484 55.6029V49.4388Z"/>
</mask>
<path d="M62.6562 14.0482C63.4062 14.3763 63.9609 14.8217 64.3203 15.3842C64.6953 15.9467 64.8828 16.5248 64.8828 17.1185C64.8828 17.7279 64.6953 18.306 64.3203 18.8529C63.9609 19.3998 63.4062 19.8451 62.6562 20.1888L39.7109 30.7123C38.5078 31.2592 37.3984 31.6576 36.3828 31.9076C35.3828 32.1576 34.3984 32.2748 33.4297 32.2592C32.4766 32.2748 31.4922 32.1576 30.4766 31.9076C29.4766 31.6576 28.3672 31.2592 27.1484 30.7123L17.1406 26.1185L31.2969 19.4857C31.9844 19.6888 32.7266 19.7904 33.5234 19.7904C34.3672 19.7904 35.1641 19.6732 35.9141 19.4388C36.6797 19.2045 37.2969 18.892 37.7656 18.5013C38.25 18.0951 38.4922 17.6342 38.4922 17.1185C38.4922 16.6185 38.25 16.1732 37.7656 15.7826C37.2969 15.392 36.6797 15.0873 35.9141 14.8685C35.1641 14.6342 34.3672 14.517 33.5234 14.517C32.6953 14.517 31.8984 14.6342 31.1328 14.8685C30.3672 15.0873 29.7422 15.392 29.2578 15.7826C28.7734 16.1732 28.5312 16.6185 28.5312 17.1185C28.5312 17.306 28.5938 17.4779 28.7188 17.6342L13.8828 24.5951L4.22656 20.1888C3.47656 19.8451 2.91406 19.3998 2.53906 18.8529C2.17969 18.306 2 17.7279 2 17.1185C2 16.5248 2.17969 15.9467 2.53906 15.3842C2.91406 14.8217 3.47656 14.3763 4.22656 14.0482L27.1484 3.54822C28.3516 3.00134 29.4609 2.60291 30.4766 2.35291C31.4922 2.10291 32.4766 1.98572 33.4297 2.00134C34.3984 1.98572 35.3828 2.10291 36.3828 2.35291C37.3984 2.60291 38.5078 3.00134 39.7109 3.54822L62.6562 14.0482ZM17.0469 29.5873L25.8125 33.5951C28.5938 34.8607 31.1328 35.4857 33.4297 35.4701C35.7422 35.4857 38.2812 34.8607 41.0469 33.5951L56.1641 26.681V34.7435C56.1641 36.4935 55.625 38.1498 54.5469 39.7123C53.4844 41.2748 51.9609 42.6498 49.9766 43.8373C47.9922 45.0404 45.6016 45.9779 42.8047 46.6498C40.0078 47.3373 36.8828 47.681 33.4297 47.681C30.0234 47.681 26.9297 47.3373 24.1484 46.6498C21.3828 45.9779 19.0156 45.0404 17.0469 43.8373V29.5873ZM10.7188 26.681L14 28.2045V41.4701C12.9375 40.392 12.125 39.2592 11.5625 38.0717C11 36.8685 10.7188 35.7592 10.7188 34.7435V26.681ZM14 49.2748V41.4701C14.4219 41.9076 14.8906 42.3217 15.4062 42.7123C15.9219 43.1029 16.4688 43.4779 17.0469 43.8373V49.2748H14ZM12.1484 49.4388C12.1484 48.517 12.4219 47.7748 12.9688 47.2123C13.5312 46.6654 14.2734 46.392 15.1953 46.392H15.8281C16.75 46.392 17.4844 46.6654 18.0312 47.2123C18.5938 47.7748 18.875 48.517 18.875 49.4388V55.6029C18.875 56.5248 18.5938 57.2592 18.0312 57.806C17.4844 58.3685 16.75 58.6498 15.8281 58.6498H15.1953C14.2734 58.6498 13.5312 58.3685 12.9688 57.806C12.4219 57.2592 12.1484 56.5248 12.1484 55.6029V49.4388Z" fill="url(#paint0_linear_191_60)"/>
<path d="M62.6562 14.0482L61.824 15.8668C61.8342 15.8715 61.8444 15.8761 61.8546 15.8805L62.6562 14.0482ZM64.3203 15.3842L62.6349 16.4609C62.6419 16.4719 62.649 16.4828 62.6562 16.4936L64.3203 15.3842ZM64.3203 18.8529L62.6709 17.7218C62.6634 17.7327 62.6561 17.7436 62.6489 17.7545L64.3203 18.8529ZM62.6562 20.1888L61.8229 18.3707L61.8225 18.3709L62.6562 20.1888ZM39.7109 30.7123L40.5385 32.533L40.5447 32.5302L39.7109 30.7123ZM36.3828 31.9076L35.9048 29.9655L35.8977 29.9673L36.3828 31.9076ZM33.4297 32.2592L33.4619 30.2594C33.4403 30.2591 33.4186 30.2591 33.3969 30.2594L33.4297 32.2592ZM30.4766 31.9076L29.9915 33.8479L29.9985 33.8496L30.4766 31.9076ZM27.1484 30.7123L26.3141 32.5299C26.3193 32.5323 26.3245 32.5347 26.3297 32.537L27.1484 30.7123ZM17.1406 26.1185L16.2921 24.3075C15.5869 24.6379 15.1376 25.3476 15.1406 26.1264C15.1437 26.9051 15.5985 27.6113 16.3063 27.9362L17.1406 26.1185ZM31.2969 19.4857L31.8636 17.5677C31.3946 17.4291 30.8911 17.4672 30.4483 17.6747L31.2969 19.4857ZM35.9141 19.4388L35.3286 17.5264L35.3175 17.5299L35.9141 19.4388ZM37.7656 18.5013L39.046 20.0378L39.0508 20.0337L37.7656 18.5013ZM37.7656 15.7826L36.4853 17.319C36.4935 17.3259 36.5018 17.3327 36.5101 17.3394L37.7656 15.7826ZM35.9141 14.8685L35.3175 16.7775C35.3332 16.7824 35.3489 16.7871 35.3646 16.7916L35.9141 14.8685ZM31.1328 14.8685L31.6823 16.7916C31.6943 16.7881 31.7063 16.7846 31.7182 16.7809L31.1328 14.8685ZM28.7188 17.6342L29.5683 19.4448C30.123 19.1845 30.5278 18.6843 30.6667 18.0875C30.8056 17.4908 30.6633 16.8632 30.2805 16.3848L28.7188 17.6342ZM13.8828 24.5951L13.0525 26.4146C13.5866 26.6583 14.2009 26.6551 14.7323 26.4057L13.8828 24.5951ZM4.22656 20.1888L3.39325 22.007L3.3963 22.0084L4.22656 20.1888ZM2.53906 18.8529L0.867651 19.9513C0.874862 19.9622 0.88218 19.9731 0.889605 19.984L2.53906 18.8529ZM2.53906 15.3842L0.874962 14.2748C0.867759 14.2856 0.860661 14.2964 0.85367 14.3074L2.53906 15.3842ZM4.22656 14.0482L5.0282 15.8805C5.03867 15.876 5.0491 15.8713 5.05949 15.8665L4.22656 14.0482ZM27.1484 3.54822L26.3208 1.72748L26.3155 1.72991L27.1484 3.54822ZM33.4297 2.00134L33.3969 4.00108C33.4186 4.00143 33.4403 4.00143 33.4619 4.00108L33.4297 2.00134ZM36.3828 2.35291L35.8977 4.2932L35.9048 4.29493L36.3828 2.35291ZM39.7109 3.54822L40.5432 1.72958L40.5385 1.72749L39.7109 3.54822ZM17.0469 29.5873L17.8785 27.7684C17.2594 27.4853 16.5388 27.5366 15.966 27.9045C15.3932 28.2725 15.0469 28.9065 15.0469 29.5873H17.0469ZM25.8125 33.5951L24.9809 35.414L24.9841 35.4155L25.8125 33.5951ZM33.4297 35.4701L33.4432 33.4701C33.4342 33.4701 33.4251 33.4701 33.4161 33.4701L33.4297 35.4701ZM41.0469 33.5951L40.215 31.7763L40.2146 31.7765L41.0469 33.5951ZM56.1641 26.681H58.1641C58.1641 26.0002 57.8177 25.3661 57.2449 24.9982C56.672 24.6303 55.9514 24.5791 55.3322 24.8622L56.1641 26.681ZM54.5469 39.7123L52.9007 38.5764L52.893 38.5877L54.5469 39.7123ZM49.9766 43.8373L48.9495 42.1211L48.9397 42.1271L49.9766 43.8373ZM42.8047 46.6498L42.3375 44.7051L42.3273 44.7076L42.8047 46.6498ZM24.1484 46.6498L24.6284 44.7082L24.6206 44.7063L24.1484 46.6498ZM17.0469 43.8373H15.0469C15.0469 44.534 15.4095 45.1805 16.004 45.5438L17.0469 43.8373ZM10.7188 26.681L11.561 24.867C10.9416 24.5795 10.2184 24.6278 9.64275 24.9951C9.06714 25.3625 8.71875 25.9982 8.71875 26.681H10.7188ZM14 28.2045H16C16 27.426 15.5483 26.7183 14.8422 26.3904L14 28.2045ZM14 41.4701L12.5755 42.8739C13.1452 43.452 14.0077 43.6285 14.7586 43.3206C15.5096 43.0128 16 42.2817 16 41.4701H14ZM11.5625 38.0717L9.75071 38.9187L9.75502 38.9278L11.5625 38.0717ZM14 49.2748H12C12 50.3793 12.8954 51.2748 14 51.2748V49.2748ZM14 41.4701L15.4397 40.0818C14.8736 39.4948 14.0077 39.3102 13.2515 39.6155C12.4952 39.9207 12 40.6545 12 41.4701H14ZM17.0469 43.8373H19.0469C19.0469 43.146 18.6899 42.5037 18.1027 42.1387L17.0469 43.8373ZM17.0469 49.2748V51.2748C18.1514 51.2748 19.0469 50.3793 19.0469 49.2748H17.0469ZM12.9688 47.2123L11.5746 45.7783C11.5611 45.7914 11.5479 45.8047 11.5348 45.8181L12.9688 47.2123ZM18.0312 57.806L16.6371 56.372C16.6236 56.3851 16.6103 56.3984 16.5973 56.4119L18.0312 57.806ZM62.6562 14.0482L61.8546 15.8805C62.3246 16.0861 62.5328 16.3011 62.6349 16.4609L64.3203 15.3842L66.0057 14.3074C65.3891 13.3422 64.4879 12.6665 63.4579 12.2159L62.6562 14.0482ZM64.3203 15.3842L62.6562 16.4936C62.8435 16.7745 62.8828 16.9725 62.8828 17.1185H64.8828H66.8828C66.8828 16.077 66.5471 15.1188 65.9844 14.2748L64.3203 15.3842ZM64.8828 17.1185H62.8828C62.8828 17.2884 62.8386 17.4772 62.6709 17.7218L64.3203 18.8529L65.9698 19.984C66.552 19.1349 66.8828 18.1674 66.8828 17.1185H64.8828ZM64.3203 18.8529L62.6489 17.7545C62.5433 17.9152 62.3199 18.1429 61.8229 18.3707L62.6562 20.1888L63.4896 22.007C64.4926 21.5472 65.3785 20.8844 65.9917 19.9513L64.3203 18.8529ZM62.6562 20.1888L61.8225 18.3709L38.8772 28.8944L39.7109 30.7123L40.5447 32.5302L63.49 22.0068L62.6562 20.1888ZM39.7109 30.7123L38.8833 28.8915C37.7648 29.4 36.7739 29.7516 35.9048 29.9656L36.3828 31.9076L36.8609 33.8496C38.023 33.5636 39.2508 33.1184 40.5385 32.533L39.7109 30.7123ZM36.3828 31.9076L35.8977 29.9673C35.0561 30.1777 34.2456 30.2721 33.4619 30.2594L33.4297 32.2592L33.3974 34.2589C34.5512 34.2775 35.7095 34.1375 36.8679 33.8479L36.3828 31.9076ZM33.4297 32.2592L33.3969 30.2594C32.6316 30.272 31.8192 30.1784 30.9546 29.9656L30.4766 31.9076L29.9985 33.8496C31.1652 34.1368 32.3215 34.2776 33.4625 34.2589L33.4297 32.2592ZM30.4766 31.9076L30.9616 29.9673C30.1038 29.7529 29.1081 29.3995 27.9672 28.8876L27.1484 30.7123L26.3297 32.537C27.6263 33.1188 28.8493 33.5623 29.9915 33.8479L30.4766 31.9076ZM27.1484 30.7123L27.9828 28.8946L17.975 24.3009L17.1406 26.1185L16.3063 27.9362L26.3141 32.5299L27.1484 30.7123ZM17.1406 26.1185L17.9892 27.9296L32.1454 21.2968L31.2969 19.4857L30.4483 17.6747L16.2921 24.3075L17.1406 26.1185ZM31.2969 19.4857L30.7302 21.4038C31.6209 21.6669 32.5559 21.7904 33.5234 21.7904V19.7904V17.7904C32.8973 17.7904 32.3479 17.7108 31.8636 17.5677L31.2969 19.4857ZM33.5234 19.7904V21.7904C34.5546 21.7904 35.5538 21.6468 36.5106 21.3478L35.9141 19.4388L35.3175 17.5299C34.7743 17.6996 34.1798 17.7904 33.5234 17.7904V19.7904ZM35.9141 19.4388L36.4995 21.3512C37.4439 21.0621 38.3199 20.6429 39.046 20.0378L37.7656 18.5013L36.4853 16.9649C36.2739 17.1411 35.9154 17.3468 35.3286 17.5264L35.9141 19.4388ZM37.7656 18.5013L39.0508 20.0337C39.8762 19.3415 40.4922 18.3577 40.4922 17.1185H38.4922H36.4922C36.4922 17.0892 36.4958 17.0529 36.5056 17.0136C36.5153 16.9743 36.5285 16.9427 36.5401 16.9207C36.5629 16.8772 36.5648 16.8982 36.4804 16.969L37.7656 18.5013ZM38.4922 17.1185H40.4922C40.4922 15.8683 39.8501 14.8943 39.0211 14.2258L37.7656 15.7826L36.5101 17.3394C36.5925 17.4059 36.5835 17.4202 36.5536 17.3651C36.5383 17.337 36.5216 17.298 36.5093 17.2501C36.4971 17.2021 36.4922 17.1568 36.4922 17.1185H38.4922ZM37.7656 15.7826L39.046 14.2462C38.3086 13.6316 37.419 13.2185 36.4635 12.9455L35.9141 14.8685L35.3646 16.7916C35.9404 16.9561 36.2852 17.1523 36.4853 17.319L37.7656 15.7826ZM35.9141 14.8685L36.5106 12.9596C35.5538 12.6606 34.5546 12.517 33.5234 12.517V14.517V16.517C34.1798 16.517 34.7743 16.6077 35.3175 16.7775L35.9141 14.8685ZM33.5234 14.517V12.517C32.5038 12.517 31.5092 12.6617 30.5474 12.9561L31.1328 14.8685L31.7182 16.7809C32.2877 16.6066 32.8869 16.517 33.5234 16.517V14.517ZM31.1328 14.8685L30.5834 12.9455C29.6293 13.2181 28.7446 13.6271 28.0023 14.2258L29.2578 15.7826L30.5133 17.3394C30.7398 17.1568 31.105 16.9565 31.6823 16.7916L31.1328 14.8685ZM29.2578 15.7826L28.0023 14.2258C27.1734 14.8943 26.5312 15.8683 26.5312 17.1185H28.5312H30.5312C30.5312 17.1568 30.5264 17.2021 30.5141 17.2501C30.5018 17.298 30.4851 17.337 30.4699 17.3651C30.4399 17.4202 30.4309 17.4059 30.5133 17.3394L29.2578 15.7826ZM28.5312 17.1185H26.5312C26.5312 17.7919 26.7688 18.3982 27.157 18.8835L28.7188 17.6342L30.2805 16.3848C30.3413 16.4608 30.4079 16.5675 30.4577 16.7046C30.5081 16.8433 30.5312 16.9852 30.5312 17.1185H28.5312ZM28.7188 17.6342L27.8692 15.8235L13.0333 22.7845L13.8828 24.5951L14.7323 26.4057L29.5683 19.4448L28.7188 17.6342ZM13.8828 24.5951L14.7131 22.7756L5.05683 18.3693L4.22656 20.1888L3.3963 22.0084L13.0525 26.4146L13.8828 24.5951ZM4.22656 20.1888L5.05987 18.3707C4.55929 18.1413 4.31416 17.9051 4.18852 17.7218L2.53906 18.8529L0.889605 19.984C1.51396 20.8945 2.39384 21.5489 3.39325 22.007L4.22656 20.1888ZM2.53906 18.8529L4.21047 17.7545C4.04889 17.5087 4 17.3084 4 17.1185H2H0C0 18.1474 0.310488 19.1034 0.867651 19.9513L2.53906 18.8529ZM2 17.1185H4C4 16.9524 4.04423 16.743 4.22445 16.4609L2.53906 15.3842L0.85367 14.3074C0.315148 15.1503 0 16.0971 0 17.1185H2ZM2.53906 15.3842L4.20316 16.4936C4.32475 16.3112 4.55438 16.0878 5.0282 15.8805L4.22656 14.0482L3.42492 12.2159C2.39875 12.6649 1.50337 13.3321 0.874962 14.2748L2.53906 15.3842ZM4.22656 14.0482L5.05949 15.8665L27.9814 5.36652L27.1484 3.54822L26.3155 1.72991L3.39364 12.2299L4.22656 14.0482ZM27.1484 3.54822L27.976 5.36895C29.0945 4.86054 30.0855 4.50887 30.9546 4.29493L30.4766 2.35291L29.9985 0.410877C28.8364 0.696938 27.6086 1.14215 26.3208 1.72749L27.1484 3.54822ZM30.4766 2.35291L30.9546 4.29493C31.8192 4.08211 32.6316 3.98853 33.3969 4.00108L33.4297 2.00134L33.4625 0.0016098C32.3215 -0.0170937 31.1652 0.123699 29.9985 0.410877L30.4766 2.35291ZM33.4297 2.00134L33.4619 4.00108C34.2456 3.98844 35.0561 4.08278 35.8977 4.29319L36.3828 2.35291L36.8679 0.412621C35.7095 0.123035 34.5512 -0.0170059 33.3974 0.00160217L33.4297 2.00134ZM36.3828 2.35291L35.9048 4.29493C36.7739 4.50887 37.7648 4.86054 38.8833 5.36895L39.7109 3.54822L40.5385 1.72749C39.2508 1.14215 38.023 0.696938 36.8609 0.410877L36.3828 2.35291ZM39.7109 3.54822L38.8787 5.36684L61.824 15.8668L62.6562 14.0482L63.4885 12.2296L40.5432 1.72959L39.7109 3.54822ZM17.0469 29.5873L16.2152 31.4062L24.9809 35.414L25.8125 33.5951L26.6441 31.7762L17.8785 27.7684L17.0469 29.5873ZM25.8125 33.5951L24.9841 35.4155C27.9466 36.7635 30.7768 37.4882 33.4433 37.47L33.4297 35.4701L33.4161 33.4701C31.4888 33.4832 29.2409 32.9579 26.6409 31.7747L25.8125 33.5951ZM33.4297 35.4701L33.4162 37.47C36.0972 37.4882 38.9281 36.7642 41.8791 35.4137L41.0469 33.5951L40.2146 31.7765C37.6344 32.9573 35.3872 33.4833 33.4432 33.4701L33.4297 35.4701ZM41.0469 33.5951L41.8787 35.4139L56.9959 28.4998L56.1641 26.681L55.3322 24.8622L40.215 31.7763L41.0469 33.5951ZM56.1641 26.681H54.1641V34.7435H56.1641H58.1641V26.681H56.1641ZM56.1641 34.7435H54.1641C54.1641 36.0531 53.7689 37.3182 52.9007 38.5764L54.5469 39.7123L56.193 40.8481C57.4811 38.9814 58.1641 36.9339 58.1641 34.7435H56.1641ZM54.5469 39.7123L52.893 38.5877C52.0264 39.8621 50.7391 41.0502 48.9496 42.1211L49.9766 43.8373L51.0036 45.5535C53.1827 44.2494 54.9424 42.6874 56.2007 40.8369L54.5469 39.7123ZM49.9766 43.8373L48.9397 42.1271C47.1684 43.201 44.9796 44.0704 42.3375 44.7051L42.8047 46.6498L43.2718 48.5945C46.2235 47.8854 48.816 46.8798 51.0135 45.5475L49.9766 43.8373ZM42.8047 46.6498L42.3273 44.7076C39.7139 45.35 36.7527 45.681 33.4297 45.681V47.681V49.681C37.0129 49.681 40.3017 49.3246 43.2821 48.592L42.8047 46.6498ZM33.4297 47.681V45.681C30.1557 45.681 27.2264 45.3504 24.6284 44.7082L24.1484 46.6498L23.6685 48.5913C26.633 49.3241 29.8911 49.681 33.4297 49.681V47.681ZM24.1484 46.6498L24.6206 44.7063C22.0112 44.0724 19.846 43.204 18.0898 42.1307L17.0469 43.8373L16.004 45.5438C18.1852 46.8768 20.7544 47.8834 23.6763 48.5933L24.1484 46.6498ZM17.0469 43.8373H19.0469V29.5873H17.0469H15.0469V43.8373H17.0469ZM10.7188 26.681L9.87653 28.495L13.1578 30.0185L14 28.2045L14.8422 26.3904L11.561 24.867L10.7188 26.681ZM14 28.2045H12V41.4701H14H16V28.2045H14ZM14 41.4701L15.4245 40.0662C14.4959 39.124 13.8231 38.172 13.37 37.2155L11.5625 38.0717L9.75502 38.9278C10.4269 40.3463 11.3791 41.6599 12.5755 42.8739L14 41.4701ZM11.5625 38.0717L13.3743 37.2246C12.8992 36.2085 12.7188 35.3909 12.7188 34.7435H10.7188H8.71875C8.71875 36.1274 9.10081 37.5286 9.75074 38.9187L11.5625 38.0717ZM10.7188 34.7435H12.7188V26.681H10.7188H8.71875V34.7435H10.7188ZM14 49.2748H16V41.4701H14H12V49.2748H14ZM14 41.4701L12.5603 42.8584C13.0585 43.375 13.6056 43.8573 14.1985 44.3065L15.4062 42.7123L16.614 41.1181C16.1756 40.786 15.7853 40.4402 15.4397 40.0818L14 41.4701ZM15.4062 42.7123L14.1985 44.3065C14.7656 44.7361 15.3634 45.1457 15.991 45.5359L17.0469 43.8373L18.1027 42.1387C17.5741 41.8101 17.0781 41.4697 16.614 41.1181L15.4062 42.7123ZM17.0469 43.8373H15.0469V49.2748H17.0469H19.0469V43.8373H17.0469ZM17.0469 49.2748V47.2748H14V49.2748V51.2748H17.0469V49.2748ZM12.1484 49.4388H14.1484C14.1484 48.9399 14.2817 48.7309 14.4027 48.6064L12.9688 47.2123L11.5348 45.8181C10.562 46.8186 10.1484 48.0941 10.1484 49.4388H12.1484ZM12.9688 47.2123L14.3629 48.6463C14.4874 48.5252 14.6963 48.392 15.1953 48.392V46.392V44.392C13.8505 44.392 12.5751 44.8056 11.5746 45.7783L12.9688 47.2123ZM15.1953 46.392V48.392H15.8281V46.392V44.392H15.1953V46.392ZM15.8281 46.392V48.392C16.3288 48.392 16.516 48.5254 16.617 48.6265L18.0312 47.2123L19.4455 45.7981C18.4528 44.8054 17.1712 44.392 15.8281 44.392V46.392ZM18.0312 47.2123L16.617 48.6265C16.7446 48.754 16.875 48.9562 16.875 49.4388H18.875H20.875C20.875 48.0777 20.4429 46.7955 19.4455 45.7981L18.0312 47.2123ZM18.875 49.4388H16.875V55.6029H18.875H20.875V49.4388H18.875ZM18.875 55.6029H16.875C16.875 56.0869 16.7446 56.2676 16.6371 56.372L18.0312 57.806L19.4254 59.24C20.4429 58.2508 20.875 56.9626 20.875 55.6029H18.875ZM18.0312 57.806L16.5973 56.4119C16.4928 56.5193 16.3121 56.6498 15.8281 56.6498V58.6498V60.6498C17.1879 60.6498 18.476 60.2177 19.4652 59.2002L18.0312 57.806ZM15.8281 58.6498V56.6498H15.1953V58.6498V60.6498H15.8281V58.6498ZM15.1953 58.6498V56.6498C14.7127 56.6498 14.5105 56.5193 14.383 56.3918L12.9688 57.806L11.5545 59.2202C12.552 60.2177 13.8342 60.6498 15.1953 60.6498V58.6498ZM12.9688 57.806L14.383 56.3918C14.2819 56.2908 14.1484 56.1036 14.1484 55.6029H12.1484H10.1484C10.1484 56.946 10.5618 58.2275 11.5545 59.2202L12.9688 57.806ZM12.1484 55.6029H14.1484V49.4388H12.1484H10.1484V55.6029H12.1484Z" fill="white" mask="url(#path-1-outside-1_191_60)"/>
<defs>
<linearGradient id="paint0_linear_191_60" x1="33.5234" y1="-4.38928" x2="33.5234" y2="52.6107" gradientUnits="userSpaceOnUse">
<stop stop-color="#F562FF"/>
<stop offset="1" stop-color="#800585"/>
</linearGradient>
</defs>
</svg>
