<svg xmlns="http://www.w3.org/2000/svg" viewBox="0 0 64 64" width="64" height="64">
  <defs>
    <linearGradient id="g" x1="0" y1="0" x2="1" y2="1">
      <stop offset="0" stop-color="#FBB04D"/>
      <stop offset="1" stop-color="#F05138"/>
    </linearGradient>
  </defs>
  <rect width="64" height="64" rx="14" fill="url(#g)"/>
  <path fill="#fff" d="M44.7 41.6c-5.2 3-12.4 3.3-19.6.2A30.2 30.2 0 0 1 12 30.8c1.6 1.3 3.5 2.4 5.5 3.2 8 3.7 16 3.4 21.6.1-8-6.1-14.8-14.1-19.9-20.6 1.4 1.2 3 2.5 4.6 3.7 6.6 5 13.6 9.2 13.6 9.2.4.2.7-.1.4-.6-.7-1.2-3.7-5.2-6.3-8.4 5.4 5.5 10.4 12 10.4 12 .3.4.1.9-.3 1.2 0 0 .2.6.5 1.7.4 1.5.6 3.1.5 4.8 1.6.4 3.4 1.1 5.3 2.3-2 .1-3.8-.2-5.3-.5.3.6.5.9.5.9z"/>
</svg>
