<svg width="51" height="48" viewBox="0 0 51 48" fill="none" xmlns="http://www.w3.org/2000/svg">
<mask id="path-1-outside-1_191_61" maskUnits="userSpaceOnUse" x="-0.976562" y="-0.539062" width="52" height="48" fill="black">
<rect fill="white" x="-0.976562" y="-0.539062" width="52" height="48"/>
<path d="M9.35938 45.1484C6.90625 45.1484 5.0625 44.5391 3.82812 43.3203C2.60938 42.1172 2 40.3047 2 37.8828V9.26562C2 6.84375 2.60938 5.03125 3.82812 3.82812C5.0625 2.60938 6.90625 2 9.35938 2H41.375C43.8281 2 45.6641 2.60938 46.8828 3.82812C48.1016 5.03125 48.7109 6.84375 48.7109 9.26562V37.8828C48.7109 40.3047 48.1016 42.1172 46.8828 43.3203C45.6641 44.5391 43.8281 45.1484 41.375 45.1484H9.35938ZM9.00781 41.375H41.6797C42.7266 41.375 43.5312 41.0938 44.0938 40.5312C44.6562 39.9844 44.9375 39.1719 44.9375 38.0938V15.9922C44.9375 14.9141 44.6562 14.1016 44.0938 13.5547C43.5312 12.9922 42.7266 12.7109 41.6797 12.7109H9.00781C7.97656 12.7109 7.17969 12.9922 6.61719 13.5547C6.05469 14.1016 5.77344 14.9141 5.77344 15.9922V38.0938C5.77344 39.1719 6.05469 39.9844 6.61719 40.5312C7.17969 41.0938 7.97656 41.375 9.00781 41.375ZM20.7969 21.1484C20.3906 21.1484 20.1016 21.0703 19.9297 20.9141C19.7734 20.7578 19.6953 20.4766 19.6953 20.0703V18.6875C19.6953 18.2812 19.7734 18.0078 19.9297 17.8672C20.1016 17.7109 20.3906 17.6328 20.7969 17.6328H22.1797C22.5859 17.6328 22.8672 17.7109 23.0234 17.8672C23.1953 18.0078 23.2812 18.2812 23.2812 18.6875V20.0703C23.2812 20.4766 23.1953 20.7578 23.0234 20.9141C22.8672 21.0703 22.5859 21.1484 22.1797 21.1484H20.7969ZM28.5781 21.1484C28.1719 21.1484 27.8906 21.0703 27.7344 20.9141C27.5781 20.7578 27.5 20.4766 27.5 20.0703V18.6875C27.5 18.2812 27.5781 18.0078 27.7344 17.8672C27.8906 17.7109 28.1719 17.6328 28.5781 17.6328H29.9609C30.3828 17.6328 30.6719 17.7109 30.8281 17.8672C30.9844 18.0078 31.0625 18.2812 31.0625 18.6875V20.0703C31.0625 20.4766 30.9844 20.7578 30.8281 20.9141C30.6719 21.0703 30.3828 21.1484 29.9609 21.1484H28.5781ZM36.3828 21.1484C35.9609 21.1484 35.6719 21.0703 35.5156 20.9141C35.3594 20.7578 35.2812 20.4766 35.2812 20.0703V18.6875C35.2812 18.2812 35.3594 18.0078 35.5156 17.8672C35.6719 17.7109 35.9609 17.6328 36.3828 17.6328H37.7422C38.1641 17.6328 38.4531 17.7109 38.6094 17.8672C38.7656 18.0078 38.8438 18.2812 38.8438 18.6875V20.0703C38.8438 20.4766 38.7656 20.7578 38.6094 20.9141C38.4531 21.0703 38.1641 21.1484 37.7422 21.1484H36.3828ZM13.0156 28.8125C12.5938 28.8125 12.3047 28.7344 12.1484 28.5781C11.9922 28.4219 11.9141 28.1406 11.9141 27.7344V26.375C11.9141 25.9531 11.9922 25.6719 12.1484 25.5312C12.3047 25.375 12.5938 25.2969 13.0156 25.2969H14.3984C14.8047 25.2969 15.0859 25.375 15.2422 25.5312C15.3984 25.6719 15.4766 25.9531 15.4766 26.375V27.7344C15.4766 28.1406 15.3984 28.4219 15.2422 28.5781C15.0859 28.7344 14.8047 28.8125 14.3984 28.8125H13.0156ZM20.7969 28.8125C20.3906 28.8125 20.1016 28.7344 19.9297 28.5781C19.7734 28.4219 19.6953 28.1406 19.6953 27.7344V26.375C19.6953 25.9531 19.7734 25.6719 19.9297 25.5312C20.1016 25.375 20.3906 25.2969 20.7969 25.2969H22.1797C22.5859 25.2969 22.8672 25.375 23.0234 25.5312C23.1953 25.6719 23.2812 25.9531 23.2812 26.375V27.7344C23.2812 28.1406 23.1953 28.4219 23.0234 28.5781C22.8672 28.7344 22.5859 28.8125 22.1797 28.8125H20.7969ZM28.5781 28.8125C28.1719 28.8125 27.8906 28.7344 27.7344 28.5781C27.5781 28.4219 27.5 28.1406 27.5 27.7344V26.375C27.5 25.9531 27.5781 25.6719 27.7344 25.5312C27.8906 25.375 28.1719 25.2969 28.5781 25.2969H29.9609C30.3828 25.2969 30.6719 25.375 30.8281 25.5312C30.9844 25.6719 31.0625 25.9531 31.0625 26.375V27.7344C31.0625 28.1406 30.9844 28.4219 30.8281 28.5781C30.6719 28.7344 30.3828 28.8125 29.9609 28.8125H28.5781ZM36.3828 28.8125C35.9609 28.8125 35.6719 28.7344 35.5156 28.5781C35.3594 28.4219 35.2812 28.1406 35.2812 27.7344V26.375C35.2812 25.9531 35.3594 25.6719 35.5156 25.5312C35.6719 25.375 35.9609 25.2969 36.3828 25.2969H37.7422C38.1641 25.2969 38.4531 25.375 38.6094 25.5312C38.7656 25.6719 38.8438 25.9531 38.8438 26.375V27.7344C38.8438 28.1406 38.7656 28.4219 38.6094 28.5781C38.4531 28.7344 38.1641 28.8125 37.7422 28.8125H36.3828ZM13.0156 36.4766C12.5938 36.4766 12.3047 36.4062 12.1484 36.2656C11.9922 36.1094 11.9141 35.8203 11.9141 35.3984V34.0391C11.9141 33.6172 11.9922 33.3359 12.1484 33.1953C12.3047 33.0391 12.5938 32.9609 13.0156 32.9609H14.3984C14.8047 32.9609 15.0859 33.0391 15.2422 33.1953C15.3984 33.3359 15.4766 33.6172 15.4766 34.0391V35.3984C15.4766 35.8203 15.3984 36.1094 15.2422 36.2656C15.0859 36.4062 14.8047 36.4766 14.3984 36.4766H13.0156ZM20.7969 36.4766C20.3906 36.4766 20.1016 36.4062 19.9297 36.2656C19.7734 36.1094 19.6953 35.8203 19.6953 35.3984V34.0391C19.6953 33.6172 19.7734 33.3359 19.9297 33.1953C20.1016 33.0391 20.3906 32.9609 20.7969 32.9609H22.1797C22.5859 32.9609 22.8672 33.0391 23.0234 33.1953C23.1953 33.3359 23.2812 33.6172 23.2812 34.0391V35.3984C23.2812 35.8203 23.1953 36.1094 23.0234 36.2656C22.8672 36.4062 22.5859 36.4766 22.1797 36.4766H20.7969ZM28.5781 36.4766C28.1719 36.4766 27.8906 36.4062 27.7344 36.2656C27.5781 36.1094 27.5 35.8203 27.5 35.3984V34.0391C27.5 33.6172 27.5781 33.3359 27.7344 33.1953C27.8906 33.0391 28.1719 32.9609 28.5781 32.9609H29.9609C30.3828 32.9609 30.6719 33.0391 30.8281 33.1953C30.9844 33.3359 31.0625 33.6172 31.0625 34.0391V35.3984C31.0625 35.8203 30.9844 36.1094 30.8281 36.2656C30.6719 36.4062 30.3828 36.4766 29.9609 36.4766H28.5781Z"/>
</mask>
<path d="M9.35938 45.1484C6.90625 45.1484 5.0625 44.5391 3.82812 43.3203C2.60938 42.1172 2 40.3047 2 37.8828V9.26562C2 6.84375 2.60938 5.03125 3.82812 3.82812C5.0625 2.60938 6.90625 2 9.35938 2H41.375C43.8281 2 45.6641 2.60938 46.8828 3.82812C48.1016 5.03125 48.7109 6.84375 48.7109 9.26562V37.8828C48.7109 40.3047 48.1016 42.1172 46.8828 43.3203C45.6641 44.5391 43.8281 45.1484 41.375 45.1484H9.35938ZM9.00781 41.375H41.6797C42.7266 41.375 43.5312 41.0938 44.0938 40.5312C44.6562 39.9844 44.9375 39.1719 44.9375 38.0938V15.9922C44.9375 14.9141 44.6562 14.1016 44.0938 13.5547C43.5312 12.9922 42.7266 12.7109 41.6797 12.7109H9.00781C7.97656 12.7109 7.17969 12.9922 6.61719 13.5547C6.05469 14.1016 5.77344 14.9141 5.77344 15.9922V38.0938C5.77344 39.1719 6.05469 39.9844 6.61719 40.5312C7.17969 41.0938 7.97656 41.375 9.00781 41.375ZM20.7969 21.1484C20.3906 21.1484 20.1016 21.0703 19.9297 20.9141C19.7734 20.7578 19.6953 20.4766 19.6953 20.0703V18.6875C19.6953 18.2812 19.7734 18.0078 19.9297 17.8672C20.1016 17.7109 20.3906 17.6328 20.7969 17.6328H22.1797C22.5859 17.6328 22.8672 17.7109 23.0234 17.8672C23.1953 18.0078 23.2812 18.2812 23.2812 18.6875V20.0703C23.2812 20.4766 23.1953 20.7578 23.0234 20.9141C22.8672 21.0703 22.5859 21.1484 22.1797 21.1484H20.7969ZM28.5781 21.1484C28.1719 21.1484 27.8906 21.0703 27.7344 20.9141C27.5781 20.7578 27.5 20.4766 27.5 20.0703V18.6875C27.5 18.2812 27.5781 18.0078 27.7344 17.8672C27.8906 17.7109 28.1719 17.6328 28.5781 17.6328H29.9609C30.3828 17.6328 30.6719 17.7109 30.8281 17.8672C30.9844 18.0078 31.0625 18.2812 31.0625 18.6875V20.0703C31.0625 20.4766 30.9844 20.7578 30.8281 20.9141C30.6719 21.0703 30.3828 21.1484 29.9609 21.1484H28.5781ZM36.3828 21.1484C35.9609 21.1484 35.6719 21.0703 35.5156 20.9141C35.3594 20.7578 35.2812 20.4766 35.2812 20.0703V18.6875C35.2812 18.2812 35.3594 18.0078 35.5156 17.8672C35.6719 17.7109 35.9609 17.6328 36.3828 17.6328H37.7422C38.1641 17.6328 38.4531 17.7109 38.6094 17.8672C38.7656 18.0078 38.8438 18.2812 38.8438 18.6875V20.0703C38.8438 20.4766 38.7656 20.7578 38.6094 20.9141C38.4531 21.0703 38.1641 21.1484 37.7422 21.1484H36.3828ZM13.0156 28.8125C12.5938 28.8125 12.3047 28.7344 12.1484 28.5781C11.9922 28.4219 11.9141 28.1406 11.9141 27.7344V26.375C11.9141 25.9531 11.9922 25.6719 12.1484 25.5312C12.3047 25.375 12.5938 25.2969 13.0156 25.2969H14.3984C14.8047 25.2969 15.0859 25.375 15.2422 25.5312C15.3984 25.6719 15.4766 25.9531 15.4766 26.375V27.7344C15.4766 28.1406 15.3984 28.4219 15.2422 28.5781C15.0859 28.7344 14.8047 28.8125 14.3984 28.8125H13.0156ZM20.7969 28.8125C20.3906 28.8125 20.1016 28.7344 19.9297 28.5781C19.7734 28.4219 19.6953 28.1406 19.6953 27.7344V26.375C19.6953 25.9531 19.7734 25.6719 19.9297 25.5312C20.1016 25.375 20.3906 25.2969 20.7969 25.2969H22.1797C22.5859 25.2969 22.8672 25.375 23.0234 25.5312C23.1953 25.6719 23.2812 25.9531 23.2812 26.375V27.7344C23.2812 28.1406 23.1953 28.4219 23.0234 28.5781C22.8672 28.7344 22.5859 28.8125 22.1797 28.8125H20.7969ZM28.5781 28.8125C28.1719 28.8125 27.8906 28.7344 27.7344 28.5781C27.5781 28.4219 27.5 28.1406 27.5 27.7344V26.375C27.5 25.9531 27.5781 25.6719 27.7344 25.5312C27.8906 25.375 28.1719 25.2969 28.5781 25.2969H29.9609C30.3828 25.2969 30.6719 25.375 30.8281 25.5312C30.9844 25.6719 31.0625 25.9531 31.0625 26.375V27.7344C31.0625 28.1406 30.9844 28.4219 30.8281 28.5781C30.6719 28.7344 30.3828 28.8125 29.9609 28.8125H28.5781ZM36.3828 28.8125C35.9609 28.8125 35.6719 28.7344 35.5156 28.5781C35.3594 28.4219 35.2812 28.1406 35.2812 27.7344V26.375C35.2812 25.9531 35.3594 25.6719 35.5156 25.5312C35.6719 25.375 35.9609 25.2969 36.3828 25.2969H37.7422C38.1641 25.2969 38.4531 25.375 38.6094 25.5312C38.7656 25.6719 38.8438 25.9531 38.8438 26.375V27.7344C38.8438 28.1406 38.7656 28.4219 38.6094 28.5781C38.4531 28.7344 38.1641 28.8125 37.7422 28.8125H36.3828ZM13.0156 36.4766C12.5938 36.4766 12.3047 36.4062 12.1484 36.2656C11.9922 36.1094 11.9141 35.8203 11.9141 35.3984V34.0391C11.9141 33.6172 11.9922 33.3359 12.1484 33.1953C12.3047 33.0391 12.5938 32.9609 13.0156 32.9609H14.3984C14.8047 32.9609 15.0859 33.0391 15.2422 33.1953C15.3984 33.3359 15.4766 33.6172 15.4766 34.0391V35.3984C15.4766 35.8203 15.3984 36.1094 15.2422 36.2656C15.0859 36.4062 14.8047 36.4766 14.3984 36.4766H13.0156ZM20.7969 36.4766C20.3906 36.4766 20.1016 36.4062 19.9297 36.2656C19.7734 36.1094 19.6953 35.8203 19.6953 35.3984V34.0391C19.6953 33.6172 19.7734 33.3359 19.9297 33.1953C20.1016 33.0391 20.3906 32.9609 20.7969 32.9609H22.1797C22.5859 32.9609 22.8672 33.0391 23.0234 33.1953C23.1953 33.3359 23.2812 33.6172 23.2812 34.0391V35.3984C23.2812 35.8203 23.1953 36.1094 23.0234 36.2656C22.8672 36.4062 22.5859 36.4766 22.1797 36.4766H20.7969ZM28.5781 36.4766C28.1719 36.4766 27.8906 36.4062 27.7344 36.2656C27.5781 36.1094 27.5 35.8203 27.5 35.3984V34.0391C27.5 33.6172 27.5781 33.3359 27.7344 33.1953C27.8906 33.0391 28.1719 32.9609 28.5781 32.9609H29.9609C30.3828 32.9609 30.6719 33.0391 30.8281 33.1953C30.9844 33.3359 31.0625 33.6172 31.0625 34.0391V35.3984C31.0625 35.8203 30.9844 36.1094 30.8281 36.2656C30.6719 36.4062 30.3828 36.4766 29.9609 36.4766H28.5781Z" fill="url(#paint0_linear_191_61)"/>
<path d="M3.82812 43.3203L5.2333 41.8971L5.23319 41.897L3.82812 43.3203ZM3.82812 3.82812L5.23319 5.25143L5.2333 5.25132L3.82812 3.82812ZM46.8828 3.82812L45.4686 5.24237L45.4778 5.25143L46.8828 3.82812ZM46.8828 43.3203L45.4777 41.897L45.4686 41.9061L46.8828 43.3203ZM44.0938 40.5312L42.6996 39.0973C42.6929 39.1038 42.6862 39.1104 42.6795 39.117L44.0938 40.5312ZM44.0938 13.5547L42.6795 14.9689C42.6862 14.9755 42.6929 14.9821 42.6996 14.9887L44.0938 13.5547ZM6.61719 13.5547L8.01134 14.9887C8.01808 14.9821 8.02476 14.9755 8.0314 14.9689L6.61719 13.5547ZM6.61719 40.5312L8.0314 39.117C8.02476 39.1104 8.01808 39.1038 8.01134 39.0973L6.61719 40.5312ZM19.9297 20.9141L18.5155 22.3283C18.5379 22.3507 18.5609 22.3726 18.5843 22.3939L19.9297 20.9141ZM19.9297 17.8672L21.2676 19.3538L21.275 19.3471L19.9297 17.8672ZM23.0234 17.8672L21.6092 19.2814C21.6562 19.3284 21.7055 19.373 21.757 19.4151L23.0234 17.8672ZM23.0234 20.9141L21.6781 19.4342C21.6546 19.4555 21.6317 19.4774 21.6092 19.4998L23.0234 20.9141ZM27.7344 17.8672L29.0723 19.3538C29.0984 19.3303 29.1238 19.3062 29.1486 19.2814L27.7344 17.8672ZM30.8281 17.8672L29.4139 19.2814C29.4387 19.3062 29.4641 19.3303 29.4902 19.3538L30.8281 17.8672ZM35.5156 17.8672L36.8536 19.3538C36.8796 19.3303 36.905 19.3062 36.9298 19.2814L35.5156 17.8672ZM38.6094 17.8672L37.1952 19.2814C37.22 19.3062 37.2454 19.3303 37.2714 19.3538L38.6094 17.8672ZM12.1484 25.5312L13.4864 27.0178C13.5124 26.9944 13.5379 26.9703 13.5627 26.9455L12.1484 25.5312ZM15.2422 25.5312L13.828 26.9455C13.8528 26.9703 13.8782 26.9944 13.9043 27.0178L15.2422 25.5312ZM19.9297 28.5781L18.5155 29.9923C18.5379 30.0148 18.5609 30.0367 18.5843 30.058L19.9297 28.5781ZM19.9297 25.5312L21.2676 27.0179L21.275 27.0111L19.9297 25.5312ZM23.0234 25.5312L21.6092 26.9455C21.6562 26.9925 21.7055 27.0371 21.757 27.0792L23.0234 25.5312ZM23.0234 28.5781L21.6781 27.0982C21.6546 27.1196 21.6317 27.1415 21.6092 27.1639L23.0234 28.5781ZM27.7344 25.5312L29.0723 27.0178C29.0984 26.9944 29.1238 26.9703 29.1486 26.9455L27.7344 25.5312ZM30.8281 25.5312L29.4139 26.9455C29.4387 26.9703 29.4641 26.9944 29.4902 27.0178L30.8281 25.5312ZM35.5156 25.5312L36.8536 27.0178C36.8796 26.9944 36.905 26.9703 36.9298 26.9455L35.5156 25.5312ZM38.6094 25.5312L37.1952 26.9455C37.22 26.9703 37.2454 26.9944 37.2714 27.0178L38.6094 25.5312ZM12.1484 36.2656L10.7342 37.6798C10.759 37.7046 10.7845 37.7288 10.8105 37.7522L12.1484 36.2656ZM12.1484 33.1953L13.4864 34.6819C13.5124 34.6584 13.5379 34.6343 13.5627 34.6095L12.1484 33.1953ZM15.2422 33.1953L13.828 34.6095C13.8528 34.6343 13.8782 34.6584 13.9043 34.6819L15.2422 33.1953ZM15.2422 36.2656L16.5801 37.7522C16.6062 37.7288 16.6316 37.7046 16.6564 37.6798L15.2422 36.2656ZM19.9297 36.2656L18.5155 37.6798C18.5625 37.7268 18.6118 37.7715 18.6632 37.8135L19.9297 36.2656ZM19.9297 33.1953L21.2676 34.6819L21.275 34.6752L19.9297 33.1953ZM23.0234 33.1953L21.6092 34.6095C21.6562 34.6565 21.7055 34.7011 21.757 34.7432L23.0234 33.1953ZM23.0234 36.2656L24.3614 37.7522L24.3688 37.7455L23.0234 36.2656ZM27.7344 36.2656L26.3202 37.6798C26.345 37.7046 26.3704 37.7288 26.3964 37.7522L27.7344 36.2656ZM27.7344 33.1953L29.0723 34.6819C29.0984 34.6584 29.1238 34.6343 29.1486 34.6095L27.7344 33.1953ZM30.8281 33.1953L29.4139 34.6095C29.4387 34.6343 29.4641 34.6584 29.4902 34.6819L30.8281 33.1953ZM30.8281 36.2656L32.1661 37.7522C32.1921 37.7288 32.2175 37.7046 32.2423 37.6798L30.8281 36.2656ZM9.35938 45.1484V43.1484C7.21242 43.1484 5.96161 42.6162 5.2333 41.8971L3.82812 43.3203L2.42295 44.7435C4.16339 46.4619 6.60008 47.1484 9.35938 47.1484V45.1484ZM3.82812 43.3203L5.23319 41.897C4.52962 41.2025 4 39.9942 4 37.8828H2H0C0 40.6151 0.689126 43.0319 2.42306 44.7436L3.82812 43.3203ZM2 37.8828H4V9.26562H2H0V37.8828H2ZM2 9.26562H4C4 7.15421 4.52962 5.94597 5.23319 5.25143L3.82812 3.82812L2.42306 2.40482C0.689126 4.11653 0 6.53329 0 9.26562H2ZM3.82812 3.82812L5.2333 5.25132C5.96161 4.53223 7.21242 4 9.35938 4V2V0C6.60008 0 4.16339 0.68652 2.42295 2.40493L3.82812 3.82812ZM9.35938 2V4H41.375V2V0H9.35938V2ZM41.375 2V4C43.5241 4 44.7594 4.5331 45.4686 5.24234L46.8828 3.82812L48.297 2.41391C46.5688 0.685654 44.1321 0 41.375 0V2ZM46.8828 3.82812L45.4778 5.25143C46.1813 5.94597 46.7109 7.15421 46.7109 9.26562H48.7109H50.7109C50.7109 6.53329 50.0218 4.11653 48.2879 2.40482L46.8828 3.82812ZM48.7109 9.26562H46.7109V37.8828H48.7109H50.7109V9.26562H48.7109ZM48.7109 37.8828H46.7109C46.7109 39.9942 46.1813 41.2025 45.4778 41.897L46.8828 43.3203L48.2879 44.7436C50.0218 43.0319 50.7109 40.6151 50.7109 37.8828H48.7109ZM46.8828 43.3203L45.4686 41.9061C44.7594 42.6153 43.5241 43.1484 41.375 43.1484V45.1484V47.1484C44.1321 47.1484 46.5688 46.4628 48.297 44.7345L46.8828 43.3203ZM41.375 45.1484V43.1484H9.35938V45.1484V47.1484H41.375V45.1484ZM9.00781 41.375V43.375H41.6797V41.375V39.375H9.00781V41.375ZM41.6797 41.375V43.375C43.083 43.375 44.4631 42.9904 45.508 41.9455L44.0938 40.5312L42.6795 39.117C42.5994 39.1971 42.3701 39.375 41.6797 39.375V41.375ZM44.0938 40.5312L45.4879 41.9652C46.5648 40.9183 46.9375 39.5046 46.9375 38.0938H44.9375H42.9375C42.9375 38.8392 42.7477 39.0505 42.6996 39.0973L44.0938 40.5312ZM44.9375 38.0938H46.9375V15.9922H44.9375H42.9375V38.0938H44.9375ZM44.9375 15.9922H46.9375C46.9375 14.5814 46.5648 13.1677 45.4879 12.1207L44.0938 13.5547L42.6996 14.9887C42.7477 15.0355 42.9375 15.2468 42.9375 15.9922H44.9375ZM44.0938 13.5547L45.508 12.1405C44.4631 11.0956 43.083 10.7109 41.6797 10.7109V12.7109V14.7109C42.3701 14.7109 42.5994 14.8888 42.6795 14.9689L44.0938 13.5547ZM41.6797 12.7109V10.7109H9.00781V12.7109V14.7109H41.6797V12.7109ZM9.00781 12.7109V10.7109C7.61014 10.7109 6.24247 11.101 5.20297 12.1405L6.61719 13.5547L8.0314 14.9689C8.1169 14.8834 8.34298 14.7109 9.00781 14.7109V12.7109ZM6.61719 13.5547L5.22303 12.1207C4.14615 13.1677 3.77344 14.5814 3.77344 15.9922H5.77344H7.77344C7.77344 15.2468 7.96323 15.0355 8.01134 14.9887L6.61719 13.5547ZM5.77344 15.9922H3.77344V38.0938H5.77344H7.77344V15.9922H5.77344ZM5.77344 38.0938H3.77344C3.77344 39.5046 4.14615 40.9183 5.22303 41.9652L6.61719 40.5312L8.01134 39.0973C7.96323 39.0505 7.77344 38.8392 7.77344 38.0938H5.77344ZM6.61719 40.5312L5.20297 41.9455C6.24247 42.985 7.61014 43.375 9.00781 43.375V41.375V39.375C8.34298 39.375 8.1169 39.2025 8.0314 39.117L6.61719 40.5312ZM20.7969 21.1484V19.1484C20.7118 19.1484 20.7234 19.1392 20.7972 19.1591C20.8733 19.1797 21.0682 19.2461 21.275 19.4342L19.9297 20.9141L18.5843 22.3939C19.3159 23.059 20.2333 23.1484 20.7969 23.1484V21.1484ZM19.9297 20.9141L21.3439 19.4998C21.5756 19.7316 21.6564 19.9622 21.6809 20.0506C21.7051 20.1375 21.6953 20.1575 21.6953 20.0703H19.6953H17.6953C17.6953 20.6049 17.7727 21.5855 18.5155 22.3283L19.9297 20.9141ZM19.6953 20.0703H21.6953V18.6875H19.6953H17.6953V20.0703H19.6953ZM19.6953 18.6875H21.6953C21.6953 18.5978 21.7056 18.6269 21.677 18.7272C21.6481 18.8281 21.5508 19.0989 21.2676 19.3538L19.9297 17.8672L18.5918 16.3806C17.758 17.131 17.6953 18.1884 17.6953 18.6875H19.6953ZM19.9297 17.8672L21.275 19.3471C21.0682 19.5351 20.8733 19.6016 20.7972 19.6221C20.7234 19.6421 20.7118 19.6328 20.7969 19.6328V17.6328V15.6328C20.2333 15.6328 19.3159 15.7223 18.5843 16.3873L19.9297 17.8672ZM20.7969 17.6328V19.6328H22.1797V17.6328V15.6328H20.7969V17.6328ZM22.1797 17.6328V19.6328C22.2669 19.6328 22.2468 19.6426 22.16 19.6184C22.0716 19.5939 21.8409 19.5131 21.6092 19.2814L23.0234 17.8672L24.4377 16.453C23.6949 15.7102 22.7142 15.6328 22.1797 15.6328V17.6328ZM23.0234 17.8672L21.757 19.4151C21.4648 19.1761 21.3491 18.9056 21.3088 18.7774C21.2712 18.6578 21.2812 18.6102 21.2812 18.6875H23.2812H25.2812C25.2812 18.1466 25.1945 17.0594 24.2899 16.3193L23.0234 17.8672ZM23.2812 18.6875H21.2812V20.0703H23.2812H25.2812V18.6875H23.2812ZM23.2812 20.0703H21.2812C21.2812 20.145 21.2719 20.107 21.3041 20.0015C21.3387 19.8884 21.4357 19.6546 21.6781 19.4342L23.0234 20.9141L24.3688 22.3939C25.1807 21.6558 25.2812 20.6438 25.2812 20.0703H23.2812ZM23.0234 20.9141L21.6092 19.4998C21.8409 19.2681 22.0716 19.1874 22.16 19.1628C22.2468 19.1387 22.2669 19.1484 22.1797 19.1484V21.1484V23.1484C22.7142 23.1484 23.6949 23.071 24.4377 22.3283L23.0234 20.9141ZM22.1797 21.1484V19.1484H20.7969V21.1484V23.1484H22.1797V21.1484ZM28.5781 21.1484V19.1484C28.4909 19.1484 28.511 19.1387 28.5978 19.1628C28.6862 19.1874 28.9169 19.2681 29.1486 19.4998L27.7344 20.9141L26.3202 22.3283C27.0629 23.071 28.0436 23.1484 28.5781 23.1484V21.1484ZM27.7344 20.9141L29.1486 19.4998C29.3803 19.7316 29.4611 19.9622 29.4856 20.0506C29.5097 20.1375 29.5 20.1575 29.5 20.0703H27.5H25.5C25.5 20.6049 25.5774 21.5855 26.3202 22.3283L27.7344 20.9141ZM27.5 20.0703H29.5V18.6875H27.5H25.5V20.0703H27.5ZM27.5 18.6875H29.5C29.5 18.5978 29.5103 18.6269 29.4816 18.7272C29.4528 18.8281 29.3555 19.0989 29.0723 19.3538L27.7344 17.8672L26.3964 16.3806C25.5626 17.131 25.5 18.1884 25.5 18.6875H27.5ZM27.7344 17.8672L29.1486 19.2814C28.9169 19.5131 28.6862 19.5939 28.5978 19.6184C28.511 19.6426 28.4909 19.6328 28.5781 19.6328V17.6328V15.6328C28.0436 15.6328 27.0629 15.7102 26.3202 16.453L27.7344 17.8672ZM28.5781 17.6328V19.6328H29.9609V17.6328V15.6328H28.5781V17.6328ZM29.9609 17.6328V19.6328C30.0614 19.6328 30.0515 19.6435 29.9723 19.6221C29.8945 19.6011 29.6555 19.523 29.4139 19.2814L30.8281 17.8672L32.2423 16.453C31.4898 15.7004 30.485 15.6328 29.9609 15.6328V17.6328ZM30.8281 17.8672L29.4902 19.3538C29.207 19.0989 29.1097 18.8281 29.0809 18.7272C29.0522 18.6269 29.0625 18.5978 29.0625 18.6875H31.0625H33.0625C33.0625 18.1884 32.9999 17.131 32.1661 16.3806L30.8281 17.8672ZM31.0625 18.6875H29.0625V20.0703H31.0625H33.0625V18.6875H31.0625ZM31.0625 20.0703H29.0625C29.0625 20.1575 29.0528 20.1375 29.0769 20.0506C29.1014 19.9622 29.1822 19.7316 29.4139 19.4998L30.8281 20.9141L32.2423 22.3283C32.9851 21.5855 33.0625 20.6049 33.0625 20.0703H31.0625ZM30.8281 20.9141L29.4139 19.4998C29.6555 19.2582 29.8945 19.1801 29.9723 19.1591C30.0515 19.1377 30.0614 19.1484 29.9609 19.1484V21.1484V23.1484C30.485 23.1484 31.4898 23.0808 32.2423 22.3283L30.8281 20.9141ZM29.9609 21.1484V19.1484H28.5781V21.1484V23.1484H29.9609V21.1484ZM36.3828 21.1484V19.1484C36.2824 19.1484 36.2923 19.1377 36.3714 19.1591C36.4492 19.1801 36.6882 19.2582 36.9298 19.4998L35.5156 20.9141L34.1014 22.3283C34.854 23.0808 35.8587 23.1484 36.3828 23.1484V21.1484ZM35.5156 20.9141L36.9298 19.4998C37.1616 19.7316 37.2423 19.9622 37.2669 20.0506C37.291 20.1375 37.2812 20.1575 37.2812 20.0703H35.2812H33.2812C33.2812 20.6049 33.3587 21.5855 34.1014 22.3283L35.5156 20.9141ZM35.2812 20.0703H37.2812V18.6875H35.2812H33.2812V20.0703H35.2812ZM35.2812 18.6875H37.2812C37.2812 18.5978 37.2915 18.6269 37.2629 18.7272C37.2341 18.8281 37.1367 19.0989 36.8536 19.3538L35.5156 17.8672L34.1777 16.3806C33.3439 17.131 33.2812 18.1884 33.2812 18.6875H35.2812ZM35.5156 17.8672L36.9298 19.2814C36.6882 19.523 36.4492 19.6011 36.3714 19.6221C36.2923 19.6435 36.2824 19.6328 36.3828 19.6328V17.6328V15.6328C35.8587 15.6328 34.854 15.7004 34.1014 16.453L35.5156 17.8672ZM36.3828 17.6328V19.6328H37.7422V17.6328V15.6328H36.3828V17.6328ZM37.7422 17.6328V19.6328C37.8426 19.6328 37.8327 19.6435 37.7536 19.6221C37.6758 19.6011 37.4368 19.523 37.1952 19.2814L38.6094 17.8672L40.0236 16.453C39.271 15.7004 38.2663 15.6328 37.7422 15.6328V17.6328ZM38.6094 17.8672L37.2714 19.3538C36.9883 19.0989 36.8909 18.8281 36.8621 18.7272C36.8335 18.6269 36.8438 18.5978 36.8438 18.6875H38.8438H40.8438C40.8438 18.1884 40.7811 17.131 39.9473 16.3806L38.6094 17.8672ZM38.8438 18.6875H36.8438V20.0703H38.8438H40.8438V18.6875H38.8438ZM38.8438 20.0703H36.8438C36.8438 20.1575 36.834 20.1375 36.8581 20.0506C36.8827 19.9622 36.9634 19.7316 37.1952 19.4998L38.6094 20.9141L40.0236 22.3283C40.7663 21.5855 40.8438 20.6049 40.8438 20.0703H38.8438ZM38.6094 20.9141L37.1952 19.4998C37.4368 19.2582 37.6758 19.1801 37.7536 19.1591C37.8327 19.1377 37.8426 19.1484 37.7422 19.1484V21.1484V23.1484C38.2663 23.1484 39.271 23.0808 40.0236 22.3283L38.6094 20.9141ZM37.7422 21.1484V19.1484H36.3828V21.1484V23.1484H37.7422V21.1484ZM13.0156 28.8125V26.8125C12.9152 26.8125 12.9251 26.8018 13.0042 26.8232C13.0821 26.8442 13.321 26.9223 13.5627 27.1639L12.1484 28.5781L10.7342 29.9923C11.4868 30.7449 12.4915 30.8125 13.0156 30.8125V28.8125ZM12.1484 28.5781L13.5627 27.1639C13.7944 27.3956 13.8751 27.6263 13.8997 27.7147C13.9238 27.8015 13.9141 27.8216 13.9141 27.7344H11.9141H9.91406C9.91406 28.2689 9.9915 29.2496 10.7342 29.9923L12.1484 28.5781ZM11.9141 27.7344H13.9141V26.375H11.9141H9.91406V27.7344H11.9141ZM11.9141 26.375H13.9141C13.9141 26.2721 13.9253 26.2908 13.8997 26.3829C13.875 26.472 13.7809 26.7527 13.4864 27.0178L12.1484 25.5312L10.8105 24.0447C9.96607 24.8047 9.91406 25.8884 9.91406 26.375H11.9141ZM12.1484 25.5312L13.5627 26.9455C13.321 27.1871 13.0821 27.2652 13.0042 27.2862C12.9251 27.3076 12.9152 27.2969 13.0156 27.2969V25.2969V23.2969C12.4915 23.2969 11.4868 23.3645 10.7342 24.117L12.1484 25.5312ZM13.0156 25.2969V27.2969H14.3984V25.2969V23.2969H13.0156V25.2969ZM14.3984 25.2969V27.2969C14.4856 27.2969 14.4656 27.3066 14.3788 27.2825C14.2904 27.2579 14.0597 27.1772 13.828 26.9455L15.2422 25.5312L16.6564 24.117C15.9137 23.3743 14.933 23.2969 14.3984 23.2969V25.2969ZM15.2422 25.5312L13.9043 27.0178C13.6097 26.7527 13.5157 26.472 13.4909 26.3829C13.4653 26.2908 13.4766 26.2721 13.4766 26.375H15.4766H17.4766C17.4766 25.8884 17.4246 24.8047 16.5801 24.0447L15.2422 25.5312ZM15.4766 26.375H13.4766V27.7344H15.4766H17.4766V26.375H15.4766ZM15.4766 27.7344H13.4766C13.4766 27.8216 13.4668 27.8015 13.4909 27.7147C13.5155 27.6263 13.5963 27.3956 13.828 27.1639L15.2422 28.5781L16.6564 29.9923C17.3991 29.2496 17.4766 28.2689 17.4766 27.7344H15.4766ZM15.2422 28.5781L13.828 27.1639C14.0597 26.9322 14.2904 26.8514 14.3788 26.8269C14.4656 26.8028 14.4856 26.8125 14.3984 26.8125V28.8125V30.8125C14.933 30.8125 15.9137 30.7351 16.6564 29.9923L15.2422 28.5781ZM14.3984 28.8125V26.8125H13.0156V28.8125V30.8125H14.3984V28.8125ZM20.7969 28.8125V26.8125C20.7118 26.8125 20.7234 26.8032 20.7972 26.8232C20.8733 26.8437 21.0682 26.9102 21.275 27.0982L19.9297 28.5781L18.5843 30.058C19.3159 30.723 20.2333 30.8125 20.7969 30.8125V28.8125ZM19.9297 28.5781L21.3439 27.1639C21.5756 27.3956 21.6564 27.6263 21.6809 27.7147C21.7051 27.8015 21.6953 27.8216 21.6953 27.7344H19.6953H17.6953C17.6953 28.2689 17.7727 29.2496 18.5155 29.9923L19.9297 28.5781ZM19.6953 27.7344H21.6953V26.375H19.6953H17.6953V27.7344H19.6953ZM19.6953 26.375H21.6953C21.6953 26.2721 21.7065 26.2908 21.6809 26.3829C21.6562 26.472 21.5622 26.7527 21.2676 27.0178L19.9297 25.5312L18.5918 24.0447C17.7473 24.8047 17.6953 25.8884 17.6953 26.375H19.6953ZM19.9297 25.5312L21.275 27.0111C21.0682 27.1992 20.8733 27.2656 20.7972 27.2862C20.7234 27.3061 20.7118 27.2969 20.7969 27.2969V25.2969V23.2969C20.2333 23.2969 19.3159 23.3864 18.5843 24.0514L19.9297 25.5312ZM20.7969 25.2969V27.2969H22.1797V25.2969V23.2969H20.7969V25.2969ZM22.1797 25.2969V27.2969C22.2669 27.2969 22.2468 27.3066 22.16 27.2825C22.0716 27.2579 21.8409 27.1772 21.6092 26.9455L23.0234 25.5312L24.4377 24.117C23.6949 23.3743 22.7142 23.2969 22.1797 23.2969V25.2969ZM23.0234 25.5312L21.757 27.0792C21.4523 26.8299 21.3398 26.549 21.3041 26.4321C21.2701 26.3207 21.2812 26.2839 21.2812 26.375H23.2812H25.2812C25.2812 25.8488 25.207 24.7337 24.2899 23.9833L23.0234 25.5312ZM23.2812 26.375H21.2812V27.7344H23.2812H25.2812V26.375H23.2812ZM23.2812 27.7344H21.2812C21.2812 27.8091 21.2719 27.7711 21.3041 27.6656C21.3387 27.5524 21.4357 27.3186 21.6781 27.0982L23.0234 28.5781L24.3688 30.058C25.1807 29.3199 25.2812 28.3078 25.2812 27.7344H23.2812ZM23.0234 28.5781L21.6092 27.1639C21.8409 26.9322 22.0716 26.8514 22.16 26.8269C22.2468 26.8028 22.2669 26.8125 22.1797 26.8125V28.8125V30.8125C22.7142 30.8125 23.6949 30.7351 24.4377 29.9923L23.0234 28.5781ZM22.1797 28.8125V26.8125H20.7969V28.8125V30.8125H22.1797V28.8125ZM28.5781 28.8125V26.8125C28.4909 26.8125 28.511 26.8028 28.5978 26.8269C28.6862 26.8514 28.9169 26.9322 29.1486 27.1639L27.7344 28.5781L26.3202 29.9923C27.0629 30.7351 28.0436 30.8125 28.5781 30.8125V28.8125ZM27.7344 28.5781L29.1486 27.1639C29.3803 27.3956 29.4611 27.6263 29.4856 27.7147C29.5097 27.8015 29.5 27.8216 29.5 27.7344H27.5H25.5C25.5 28.2689 25.5774 29.2496 26.3202 29.9923L27.7344 28.5781ZM27.5 27.7344H29.5V26.375H27.5H25.5V27.7344H27.5ZM27.5 26.375H29.5C29.5 26.2721 29.5112 26.2908 29.4856 26.3829C29.4609 26.472 29.3669 26.7527 29.0723 27.0178L27.7344 25.5312L26.3964 24.0447C25.552 24.8047 25.5 25.8884 25.5 26.375H27.5ZM27.7344 25.5312L29.1486 26.9455C28.9169 27.1772 28.6862 27.2579 28.5978 27.2825C28.511 27.3066 28.4909 27.2969 28.5781 27.2969V25.2969V23.2969C28.0436 23.2969 27.0629 23.3743 26.3202 24.117L27.7344 25.5312ZM28.5781 25.2969V27.2969H29.9609V25.2969V23.2969H28.5781V25.2969ZM29.9609 25.2969V27.2969C30.0614 27.2969 30.0515 27.3076 29.9723 27.2862C29.8945 27.2652 29.6555 27.1871 29.4139 26.9455L30.8281 25.5312L32.2423 24.117C31.4898 23.3645 30.485 23.2969 29.9609 23.2969V25.2969ZM30.8281 25.5312L29.4902 27.0178C29.1956 26.7527 29.1016 26.472 29.0769 26.3829C29.0513 26.2908 29.0625 26.2721 29.0625 26.375H31.0625H33.0625C33.0625 25.8884 33.0105 24.8047 32.1661 24.0447L30.8281 25.5312ZM31.0625 26.375H29.0625V27.7344H31.0625H33.0625V26.375H31.0625ZM31.0625 27.7344H29.0625C29.0625 27.8216 29.0528 27.8015 29.0769 27.7147C29.1014 27.6263 29.1822 27.3956 29.4139 27.1639L30.8281 28.5781L32.2423 29.9923C32.9851 29.2496 33.0625 28.2689 33.0625 27.7344H31.0625ZM30.8281 28.5781L29.4139 27.1639C29.6555 26.9223 29.8945 26.8442 29.9723 26.8232C30.0515 26.8018 30.0614 26.8125 29.9609 26.8125V28.8125V30.8125C30.485 30.8125 31.4898 30.7449 32.2423 29.9923L30.8281 28.5781ZM29.9609 28.8125V26.8125H28.5781V28.8125V30.8125H29.9609V28.8125ZM36.3828 28.8125V26.8125C36.2824 26.8125 36.2923 26.8018 36.3714 26.8232C36.4492 26.8442 36.6882 26.9223 36.9298 27.1639L35.5156 28.5781L34.1014 29.9923C34.854 30.7449 35.8587 30.8125 36.3828 30.8125V28.8125ZM35.5156 28.5781L36.9298 27.1639C37.1616 27.3956 37.2423 27.6263 37.2669 27.7147C37.291 27.8015 37.2812 27.8216 37.2812 27.7344H35.2812H33.2812C33.2812 28.2689 33.3587 29.2496 34.1014 29.9923L35.5156 28.5781ZM35.2812 27.7344H37.2812V26.375H35.2812H33.2812V27.7344H35.2812ZM35.2812 26.375H37.2812C37.2812 26.2721 37.2925 26.2908 37.2669 26.3829C37.2421 26.472 37.1481 26.7527 36.8536 27.0178L35.5156 25.5312L34.1777 24.0447C33.3333 24.8047 33.2812 25.8884 33.2812 26.375H35.2812ZM35.5156 25.5312L36.9298 26.9455C36.6882 27.1871 36.4492 27.2652 36.3714 27.2862C36.2923 27.3076 36.2824 27.2969 36.3828 27.2969V25.2969V23.2969C35.8587 23.2969 34.854 23.3645 34.1014 24.117L35.5156 25.5312ZM36.3828 25.2969V27.2969H37.7422V25.2969V23.2969H36.3828V25.2969ZM37.7422 25.2969V27.2969C37.8426 27.2969 37.8327 27.3076 37.7536 27.2862C37.6758 27.2652 37.4368 27.1871 37.1952 26.9455L38.6094 25.5312L40.0236 24.117C39.271 23.3645 38.2663 23.2969 37.7422 23.2969V25.2969ZM38.6094 25.5312L37.2714 27.0178C36.9769 26.7527 36.8829 26.472 36.8581 26.3829C36.8325 26.2908 36.8438 26.2721 36.8438 26.375H38.8438H40.8438C40.8438 25.8884 40.7917 24.8047 39.9473 24.0447L38.6094 25.5312ZM38.8438 26.375H36.8438V27.7344H38.8438H40.8438V26.375H38.8438ZM38.8438 27.7344H36.8438C36.8438 27.8216 36.834 27.8015 36.8581 27.7147C36.8827 27.6263 36.9634 27.3956 37.1952 27.1639L38.6094 28.5781L40.0236 29.9923C40.7663 29.2496 40.8438 28.2689 40.8438 27.7344H38.8438ZM38.6094 28.5781L37.1952 27.1639C37.4368 26.9223 37.6758 26.8442 37.7536 26.8232C37.8327 26.8018 37.8426 26.8125 37.7422 26.8125V28.8125V30.8125C38.2663 30.8125 39.271 30.7449 40.0236 29.9923L38.6094 28.5781ZM37.7422 28.8125V26.8125H36.3828V28.8125V30.8125H37.7422V28.8125ZM13.0156 36.4766V34.4766C12.9035 34.4766 12.8955 34.466 12.9551 34.4805C13.0066 34.493 13.2374 34.555 13.4864 34.779L12.1484 36.2656L10.8105 37.7522C11.5595 38.4263 12.5244 38.4766 13.0156 38.4766V36.4766ZM12.1484 36.2656L13.5627 34.8514C13.8043 35.093 13.8824 35.332 13.9034 35.4098C13.9248 35.489 13.9141 35.4989 13.9141 35.3984H11.9141H9.91406C9.91406 35.9225 9.98165 36.9273 10.7342 37.6798L12.1484 36.2656ZM11.9141 35.3984H13.9141V34.0391H11.9141H9.91406V35.3984H11.9141ZM11.9141 34.0391H13.9141C13.9141 33.9362 13.9253 33.9548 13.8997 34.047C13.875 34.1361 13.7809 34.4168 13.4864 34.6819L12.1484 33.1953L10.8105 31.7087C9.96607 32.4687 9.91406 33.5525 9.91406 34.0391H11.9141ZM12.1484 33.1953L13.5627 34.6095C13.321 34.8511 13.0821 34.9292 13.0042 34.9503C12.9251 34.9716 12.9152 34.9609 13.0156 34.9609V32.9609V30.9609C12.4915 30.9609 11.4868 31.0285 10.7342 31.7811L12.1484 33.1953ZM13.0156 32.9609V34.9609H14.3984V32.9609V30.9609H13.0156V32.9609ZM14.3984 32.9609V34.9609C14.4856 34.9609 14.4656 34.9707 14.3788 34.9466C14.2904 34.922 14.0597 34.8412 13.828 34.6095L15.2422 33.1953L16.6564 31.7811C15.9137 31.0384 14.933 30.9609 14.3984 30.9609V32.9609ZM15.2422 33.1953L13.9043 34.6819C13.6097 34.4168 13.5157 34.1361 13.4909 34.047C13.4653 33.9548 13.4766 33.9362 13.4766 34.0391H15.4766H17.4766C17.4766 33.5525 17.4246 32.4687 16.5801 31.7087L15.2422 33.1953ZM15.4766 34.0391H13.4766V35.3984H15.4766H17.4766V34.0391H15.4766ZM15.4766 35.3984H13.4766C13.4766 35.4989 13.4659 35.489 13.4872 35.4098C13.5083 35.332 13.5864 35.093 13.828 34.8514L15.2422 36.2656L16.6564 37.6798C17.409 36.9273 17.4766 35.9225 17.4766 35.3984H15.4766ZM15.2422 36.2656L13.9043 34.779C14.1436 34.5637 14.3666 34.4991 14.429 34.4835C14.4961 34.4668 14.4979 34.4766 14.3984 34.4766V36.4766V38.4766C14.898 38.4766 15.8402 38.4181 16.5801 37.7522L15.2422 36.2656ZM14.3984 36.4766V34.4766H13.0156V36.4766V38.4766H14.3984V36.4766ZM20.7969 36.4766V34.4766C20.6994 34.4766 20.6933 34.4672 20.7481 34.4805C20.8004 34.4932 20.9857 34.5455 21.1962 34.7177L19.9297 36.2656L18.6632 37.8135C19.3871 38.4058 20.2667 38.4766 20.7969 38.4766V36.4766ZM19.9297 36.2656L21.3439 34.8514C21.5855 35.093 21.6636 35.332 21.6846 35.4098C21.706 35.489 21.6953 35.4989 21.6953 35.3984H19.6953H17.6953C17.6953 35.9225 17.7629 36.9273 18.5155 37.6798L19.9297 36.2656ZM19.6953 35.3984H21.6953V34.0391H19.6953H17.6953V35.3984H19.6953ZM19.6953 34.0391H21.6953C21.6953 33.9362 21.7065 33.9548 21.6809 34.047C21.6562 34.1361 21.5622 34.4168 21.2676 34.6819L19.9297 33.1953L18.5918 31.7087C17.7473 32.4687 17.6953 33.5525 17.6953 34.0391H19.6953ZM19.9297 33.1953L21.275 34.6752C21.0682 34.8633 20.8733 34.9297 20.7972 34.9503C20.7234 34.9702 20.7118 34.9609 20.7969 34.9609V32.9609V30.9609C20.2333 30.9609 19.3159 31.0504 18.5843 31.7154L19.9297 33.1953ZM20.7969 32.9609V34.9609H22.1797V32.9609V30.9609H20.7969V32.9609ZM22.1797 32.9609V34.9609C22.2669 34.9609 22.2468 34.9707 22.16 34.9466C22.0716 34.922 21.8409 34.8412 21.6092 34.6095L23.0234 33.1953L24.4377 31.7811C23.6949 31.0384 22.7142 30.9609 22.1797 30.9609V32.9609ZM23.0234 33.1953L21.757 34.7432C21.4523 34.4939 21.3398 34.2131 21.3041 34.0962C21.2701 33.9848 21.2812 33.9479 21.2812 34.0391H23.2812H25.2812C25.2812 33.5128 25.207 32.3978 24.2899 31.6474L23.0234 33.1953ZM23.2812 34.0391H21.2812V35.3984H23.2812H25.2812V34.0391H23.2812ZM23.2812 35.3984H21.2812C21.2812 35.487 21.2707 35.4594 21.2997 35.3617C21.3304 35.2587 21.4247 35.0161 21.6781 34.7857L23.0234 36.2656L24.3688 37.7455C25.1924 36.9968 25.2812 35.9595 25.2812 35.3984H23.2812ZM23.0234 36.2656L21.6855 34.779C21.9248 34.5637 22.1478 34.4991 22.2102 34.4835C22.2774 34.4668 22.2792 34.4766 22.1797 34.4766V36.4766V38.4766C22.6792 38.4766 23.6214 38.4181 24.3614 37.7522L23.0234 36.2656ZM22.1797 36.4766V34.4766H20.7969V36.4766V38.4766H22.1797V36.4766ZM28.5781 36.4766V34.4766C28.4786 34.4766 28.4804 34.4668 28.5476 34.4835C28.61 34.4991 28.833 34.5637 29.0723 34.779L27.7344 36.2656L26.3964 37.7522C27.1364 38.4181 28.0786 38.4766 28.5781 38.4766V36.4766ZM27.7344 36.2656L29.1486 34.8514C29.3902 35.093 29.4683 35.332 29.4893 35.4098C29.5107 35.489 29.5 35.4989 29.5 35.3984H27.5H25.5C25.5 35.9225 25.5676 36.9273 26.3202 37.6798L27.7344 36.2656ZM27.5 35.3984H29.5V34.0391H27.5H25.5V35.3984H27.5ZM27.5 34.0391H29.5C29.5 33.9362 29.5112 33.9548 29.4856 34.047C29.4609 34.1361 29.3669 34.4168 29.0723 34.6819L27.7344 33.1953L26.3964 31.7087C25.552 32.4687 25.5 33.5525 25.5 34.0391H27.5ZM27.7344 33.1953L29.1486 34.6095C28.9169 34.8412 28.6862 34.922 28.5978 34.9466C28.511 34.9707 28.4909 34.9609 28.5781 34.9609V32.9609V30.9609C28.0436 30.9609 27.0629 31.0384 26.3202 31.7811L27.7344 33.1953ZM28.5781 32.9609V34.9609H29.9609V32.9609V30.9609H28.5781V32.9609ZM29.9609 32.9609V34.9609C30.0614 34.9609 30.0515 34.9716 29.9723 34.9503C29.8945 34.9292 29.6555 34.8511 29.4139 34.6095L30.8281 33.1953L32.2423 31.7811C31.4898 31.0285 30.485 30.9609 29.9609 30.9609V32.9609ZM30.8281 33.1953L29.4902 34.6819C29.1956 34.4168 29.1016 34.1361 29.0769 34.047C29.0513 33.9548 29.0625 33.9362 29.0625 34.0391H31.0625H33.0625C33.0625 33.5525 33.0105 32.4687 32.1661 31.7087L30.8281 33.1953ZM31.0625 34.0391H29.0625V35.3984H31.0625H33.0625V34.0391H31.0625ZM31.0625 35.3984H29.0625C29.0625 35.4989 29.0518 35.489 29.0732 35.4098C29.0942 35.332 29.1723 35.093 29.4139 34.8514L30.8281 36.2656L32.2423 37.6798C32.9949 36.9273 33.0625 35.9225 33.0625 35.3984H31.0625ZM30.8281 36.2656L29.4902 34.779C29.7392 34.555 29.9699 34.493 30.0214 34.4805C30.0811 34.466 30.0731 34.4766 29.9609 34.4766V36.4766V38.4766C30.4522 38.4766 31.4171 38.4263 32.1661 37.7522L30.8281 36.2656ZM29.9609 36.4766V34.4766H28.5781V36.4766V38.4766H29.9609V36.4766Z" fill="white" mask="url(#path-1-outside-1_191_61)"/>
<defs>
<linearGradient id="paint0_linear_191_61" x1="25.5234" y1="-5.53906" x2="25.5234" y2="51.4609" gradientUnits="userSpaceOnUse">
<stop stop-color="#19FF00"/>
<stop offset="1" stop-color="#078200"/>
</linearGradient>
</defs>
</svg>
