<svg width="36" height="59" viewBox="0 0 36 59" fill="none" xmlns="http://www.w3.org/2000/svg">
<mask id="path-1-outside-1_191_59" maskUnits="userSpaceOnUse" x="-0.976562" y="-0.09375" width="37" height="59" fill="black">
<rect fill="white" x="-0.976562" y="-0.09375" width="37" height="59"/>
<path d="M2 16.4375C2 14.4219 2.39844 12.5391 3.19531 10.7891C4.00781 9.03906 5.125 7.50781 6.54688 6.19531C7.98438 4.86719 9.64844 3.83594 11.5391 3.10156C13.4453 2.36719 15.4922 2 17.6797 2C19.8672 2 21.9141 2.36719 23.8203 3.10156C25.7266 3.83594 27.3906 4.86719 28.8125 6.19531C30.25 7.50781 31.3672 9.03906 32.1641 10.7891C32.9609 12.5391 33.3594 14.4219 33.3594 16.4375C33.3594 18.25 33.1562 19.8516 32.75 21.2422C32.3594 22.6172 31.8516 23.9688 31.2266 25.2969C30.6172 26.625 29.9844 28.0859 29.3281 29.6797C28.6719 31.2734 28.0781 33.1641 27.5469 35.3516C27.0312 37.5234 26.6797 40.1719 26.4922 43.2969C26.4609 43.7188 26.3203 44.0547 26.0703 44.3047C25.8203 44.5547 25.4688 44.6797 25.0156 44.6797H10.3438C9.89062 44.6797 9.53906 44.5547 9.28906 44.3047C9.05469 44.0547 8.92188 43.7188 8.89062 43.2969C8.70312 40.1719 8.34375 37.5234 7.8125 35.3516C7.29688 33.1641 6.71094 31.2734 6.05469 29.6797C5.39844 28.0859 4.75781 26.625 4.13281 25.2969C3.52344 23.9688 3.01562 22.6172 2.60938 21.2422C2.20312 19.8516 2 18.25 2 16.4375ZM10.2734 49.7422C9.88281 49.7422 9.55469 49.6094 9.28906 49.3438C9.02344 49.0781 8.89062 48.75 8.89062 48.3594C8.89062 47.9844 9.02344 47.6641 9.28906 47.3984C9.55469 47.1328 9.88281 47 10.2734 47H25.1094C25.4844 47 25.8047 47.1328 26.0703 47.3984C26.3359 47.6641 26.4688 47.9844 26.4688 48.3594C26.4688 48.75 26.3359 49.0781 26.0703 49.3438C25.8047 49.6094 25.4844 49.7422 25.1094 49.7422H10.2734ZM17.6797 56.5391C15.8516 56.5391 14.2656 56.125 12.9219 55.2969C11.5938 54.4844 10.8906 53.4062 10.8125 52.0625H24.5703C24.4609 53.4062 23.7344 54.4844 22.3906 55.2969C21.0625 56.125 19.4922 56.5391 17.6797 56.5391Z"/>
</mask>
<path d="M2 16.4375C2 14.4219 2.39844 12.5391 3.19531 10.7891C4.00781 9.03906 5.125 7.50781 6.54688 6.19531C7.98438 4.86719 9.64844 3.83594 11.5391 3.10156C13.4453 2.36719 15.4922 2 17.6797 2C19.8672 2 21.9141 2.36719 23.8203 3.10156C25.7266 3.83594 27.3906 4.86719 28.8125 6.19531C30.25 7.50781 31.3672 9.03906 32.1641 10.7891C32.9609 12.5391 33.3594 14.4219 33.3594 16.4375C33.3594 18.25 33.1562 19.8516 32.75 21.2422C32.3594 22.6172 31.8516 23.9688 31.2266 25.2969C30.6172 26.625 29.9844 28.0859 29.3281 29.6797C28.6719 31.2734 28.0781 33.1641 27.5469 35.3516C27.0312 37.5234 26.6797 40.1719 26.4922 43.2969C26.4609 43.7188 26.3203 44.0547 26.0703 44.3047C25.8203 44.5547 25.4688 44.6797 25.0156 44.6797H10.3438C9.89062 44.6797 9.53906 44.5547 9.28906 44.3047C9.05469 44.0547 8.92188 43.7188 8.89062 43.2969C8.70312 40.1719 8.34375 37.5234 7.8125 35.3516C7.29688 33.1641 6.71094 31.2734 6.05469 29.6797C5.39844 28.0859 4.75781 26.625 4.13281 25.2969C3.52344 23.9688 3.01562 22.6172 2.60938 21.2422C2.20312 19.8516 2 18.25 2 16.4375ZM10.2734 49.7422C9.88281 49.7422 9.55469 49.6094 9.28906 49.3438C9.02344 49.0781 8.89062 48.75 8.89062 48.3594C8.89062 47.9844 9.02344 47.6641 9.28906 47.3984C9.55469 47.1328 9.88281 47 10.2734 47H25.1094C25.4844 47 25.8047 47.1328 26.0703 47.3984C26.3359 47.6641 26.4688 47.9844 26.4688 48.3594C26.4688 48.75 26.3359 49.0781 26.0703 49.3438C25.8047 49.6094 25.4844 49.7422 25.1094 49.7422H10.2734ZM17.6797 56.5391C15.8516 56.5391 14.2656 56.125 12.9219 55.2969C11.5938 54.4844 10.8906 53.4062 10.8125 52.0625H24.5703C24.4609 53.4062 23.7344 54.4844 22.3906 55.2969C21.0625 56.125 19.4922 56.5391 17.6797 56.5391Z" fill="url(#paint0_linear_191_59)"/>
<path d="M3.19531 10.7891L1.38129 9.94684C1.37923 9.9513 1.37717 9.95576 1.37514 9.96023L3.19531 10.7891ZM6.54688 6.19531L7.90344 7.66492L7.9041 7.66431L6.54688 6.19531ZM11.5391 3.10156L10.8201 1.23526L10.8149 1.23726L11.5391 3.10156ZM28.8125 6.19531L27.4473 7.65689C27.4528 7.66205 27.4584 7.66718 27.464 7.67228L28.8125 6.19531ZM32.75 21.2422L30.8302 20.6814C30.8289 20.6861 30.8275 20.6909 30.8261 20.6956L32.75 21.2422ZM31.2266 25.2969L29.4169 24.4453C29.4142 24.4511 29.4115 24.457 29.4088 24.4628L31.2266 25.2969ZM27.5469 35.3516L25.6033 34.8796L25.601 34.8896L27.5469 35.3516ZM26.4922 43.2969L28.4867 43.4446C28.4874 43.4353 28.488 43.426 28.4886 43.4167L26.4922 43.2969ZM9.28906 44.3047L7.82999 45.6726C7.84469 45.6883 7.85965 45.7037 7.87485 45.7189L9.28906 44.3047ZM8.89062 43.2969L6.89422 43.4167C6.89477 43.426 6.8954 43.4353 6.89609 43.4446L8.89062 43.2969ZM7.8125 35.3516L5.86585 35.8104C5.86713 35.8159 5.86844 35.8213 5.86977 35.8268L7.8125 35.3516ZM4.13281 25.2969L2.31502 26.1309C2.31771 26.1368 2.32043 26.1426 2.32317 26.1485L4.13281 25.2969ZM2.60938 21.2422L0.689608 21.803L0.691339 21.8089L2.60938 21.2422ZM12.9219 55.2969L13.9712 53.5942L13.9656 53.5908L12.9219 55.2969ZM10.8125 52.0625V50.0625C10.2619 50.0625 9.73568 50.2895 9.35782 50.6899C8.97997 51.0904 8.78391 51.6289 8.81587 52.1786L10.8125 52.0625ZM24.5703 52.0625L26.5637 52.2248C26.609 51.668 26.4194 51.1176 26.0408 50.7069C25.6621 50.2961 25.1289 50.0625 24.5703 50.0625V52.0625ZM22.3906 55.2969L21.3558 53.5854C21.348 53.5901 21.3402 53.5949 21.3324 53.5998L22.3906 55.2969ZM2 16.4375H4C4 14.6937 4.34283 13.0951 5.01549 11.6179L3.19531 10.7891L1.37514 9.96023C0.454049 11.983 0 14.15 0 16.4375H2ZM3.19531 10.7891L5.00933 11.6313C5.71146 10.119 6.67299 8.80071 7.90343 7.66492L6.54688 6.19531L5.19032 4.7257C3.57701 6.21491 2.30416 7.95913 1.38129 9.94684L3.19531 10.7891ZM6.54688 6.19531L7.9041 7.66431C9.15055 6.5127 10.5979 5.61272 12.2632 4.96586L11.5391 3.10156L10.8149 1.23726C8.69898 2.05915 6.8182 3.22168 5.18965 4.72632L6.54688 6.19531ZM11.5391 3.10156L12.258 4.96786C13.9191 4.32796 15.7205 4 17.6797 4V2V0C15.2639 0 12.9716 0.406418 10.8201 1.23527L11.5391 3.10156ZM17.6797 2V4C19.6389 4 21.4403 4.32796 23.1013 4.96786L23.8203 3.10156L24.5393 1.23527C22.3878 0.406418 20.0955 0 17.6797 0V2ZM23.8203 3.10156L23.1013 4.96786C24.7803 5.61469 26.2222 6.51253 27.4473 7.65689L28.8125 6.19531L30.1777 4.73374C28.5591 3.22185 26.6728 2.05718 24.5393 1.23527L23.8203 3.10156ZM28.8125 6.19531L27.464 7.67228C28.7046 8.80508 29.6603 10.1166 30.3439 11.6179L32.1641 10.7891L33.9842 9.96023C33.0741 7.96148 31.7954 6.21054 30.161 4.71834L28.8125 6.19531ZM32.1641 10.7891L30.3439 11.6179C31.0165 13.0951 31.3594 14.6937 31.3594 16.4375H33.3594H35.3594C35.3594 14.15 34.9053 11.983 33.9842 9.96023L32.1641 10.7891ZM33.3594 16.4375H31.3594C31.3594 18.1056 31.1719 19.5119 30.8302 20.6814L32.75 21.2422L34.6698 21.803C35.1406 20.1912 35.3594 18.3944 35.3594 16.4375H33.3594ZM32.75 21.2422L30.8261 20.6956C30.466 21.9632 29.9969 23.2129 29.4169 24.4453L31.2266 25.2969L33.0362 26.1485C33.7063 24.7246 34.2527 23.2711 34.6739 21.7887L32.75 21.2422ZM31.2266 25.2969L29.4088 24.4628C28.7867 25.8187 28.1433 27.3042 27.4788 28.9182L29.3281 29.6797L31.1775 30.4412C31.8254 28.8676 32.4477 27.4313 33.0444 26.1309L31.2266 25.2969ZM29.3281 29.6797L27.4788 28.9182C26.7742 30.6293 26.1518 32.6214 25.6034 34.8796L27.5469 35.3516L29.4904 35.8236C30.0045 33.7067 30.5696 31.9176 31.1775 30.4412L29.3281 29.6797ZM27.5469 35.3516L25.601 34.8896C25.0504 37.2085 24.6877 39.9789 24.4958 43.1771L26.4922 43.2969L28.4886 43.4167C28.6717 40.3649 29.0121 37.8383 29.4928 35.8135L27.5469 35.3516ZM26.4922 43.2969L24.4977 43.1491C24.4954 43.1792 24.4933 43.1529 24.5184 43.093C24.5454 43.0283 24.5916 42.955 24.6561 42.8905L26.0703 44.3047L27.4845 45.7189C28.1373 45.0661 28.4274 44.2461 28.4867 43.4446L26.4922 43.2969ZM26.0703 44.3047L24.6561 42.8905C24.7527 42.7938 24.8609 42.7329 24.9491 42.7015C25.029 42.6731 25.0613 42.6797 25.0156 42.6797V44.6797V46.6797C25.8427 46.6797 26.7617 46.4418 27.4845 45.7189L26.0703 44.3047ZM25.0156 44.6797V42.6797H10.3438V44.6797V46.6797H25.0156V44.6797ZM10.3438 44.6797V42.6797C10.2981 42.6797 10.3304 42.6731 10.4103 42.7015C10.4985 42.7329 10.6066 42.7938 10.7033 42.8905L9.28906 44.3047L7.87485 45.7189C8.59771 46.4418 9.51666 46.6797 10.3438 46.6797V44.6797ZM9.28906 44.3047L10.7481 42.9368C10.8124 43.0054 10.8525 43.0765 10.8736 43.1299C10.8929 43.1788 10.8883 43.1921 10.8852 43.1491L8.89062 43.2969L6.89609 43.4446C6.95297 44.2125 7.21501 45.0166 7.82999 45.6726L9.28906 44.3047ZM8.89062 43.2969L10.887 43.1771C10.695 39.9758 10.3238 37.2007 9.75523 34.8764L7.8125 35.3516L5.86977 35.8268C6.36373 37.8462 6.71129 40.368 6.89422 43.4167L8.89062 43.2969ZM7.8125 35.3516L9.75915 34.8927C9.22606 32.6311 8.61071 30.6344 7.90404 28.9182L6.05469 29.6797L4.20533 30.4412C4.81116 31.9125 5.36769 33.697 5.86585 35.8104L7.8125 35.3516ZM6.05469 29.6797L7.90404 28.9182C7.23738 27.2991 6.58358 25.8077 5.94245 24.4453L4.13281 25.2969L2.32317 26.1485C2.93205 27.4423 3.5595 28.8727 4.20533 30.4412L6.05469 29.6797ZM4.13281 25.2969L5.9506 24.4628C5.38021 23.2197 4.90615 21.9574 4.52741 20.6755L2.60938 21.2422L0.691339 21.8089C1.1251 23.277 1.66667 24.7178 2.31502 26.1309L4.13281 25.2969ZM2.60938 21.2422L4.52913 20.6814C4.18749 19.5119 4 18.1056 4 16.4375H2H0C0 18.3944 0.218762 20.1912 0.689617 21.803L2.60938 21.2422ZM10.2734 49.7422V47.7422C10.3087 47.7422 10.3869 47.7491 10.4848 47.7887C10.5842 47.8289 10.6583 47.8846 10.7033 47.9295L9.28906 49.3438L7.87485 50.758C8.53191 51.415 9.37597 51.7422 10.2734 51.7422V49.7422ZM9.28906 49.3438L10.7033 47.9295C10.7483 47.9745 10.8039 48.0486 10.8441 48.1481C10.8837 48.2459 10.8906 48.3242 10.8906 48.3594H8.89062H6.89062C6.89062 49.2568 7.21779 50.1009 7.87485 50.758L9.28906 49.3438ZM8.89062 48.3594H10.8906C10.8906 48.4132 10.88 48.5021 10.8377 48.6039C10.7955 48.7057 10.7404 48.7755 10.7033 48.8127L9.28906 47.3984L7.87485 45.9842C7.23488 46.6242 6.89062 47.4529 6.89062 48.3594H8.89062ZM9.28906 47.3984L10.7033 48.8127C10.6583 48.8576 10.5842 48.9133 10.4848 48.9535C10.3869 48.9931 10.3087 49 10.2734 49V47V45C9.37597 45 8.53191 45.3272 7.87485 45.9842L9.28906 47.3984ZM10.2734 47V49H25.1094V47V45H10.2734V47ZM25.1094 47V49C25.0556 49 24.9667 48.9893 24.8648 48.9471C24.763 48.9049 24.6932 48.8498 24.6561 48.8127L26.0703 47.3984L27.4845 45.9842C26.8446 45.3443 26.0158 45 25.1094 45V47ZM26.0703 47.3984L24.6561 48.8127C24.619 48.7755 24.5639 48.7057 24.5217 48.6039C24.4794 48.5021 24.4688 48.4132 24.4688 48.3594H26.4688H28.4688C28.4688 47.4529 28.1245 46.6242 27.4845 45.9842L26.0703 47.3984ZM26.4688 48.3594H24.4688C24.4688 48.3242 24.4756 48.2459 24.5152 48.1481C24.5555 48.0486 24.6111 47.9745 24.6561 47.9295L26.0703 49.3438L27.4845 50.758C28.1416 50.1009 28.4688 49.2568 28.4688 48.3594H26.4688ZM26.0703 49.3438L24.6561 47.9295C24.6932 47.8924 24.763 47.8373 24.8648 47.7951C24.9667 47.7529 25.0556 47.7422 25.1094 47.7422V49.7422V51.7422C26.0158 51.7422 26.8446 51.3979 27.4845 50.758L26.0703 49.3438ZM25.1094 49.7422V47.7422H10.2734V49.7422V51.7422H25.1094V49.7422ZM17.6797 56.5391V54.5391C16.1625 54.5391 14.9523 54.1989 13.9712 53.5942L12.9219 55.2969L11.8726 56.9995C13.579 58.0511 15.5407 58.5391 17.6797 58.5391V56.5391ZM12.9219 55.2969L13.9656 53.5908C13.0954 53.0584 12.8428 52.5262 12.8091 51.9464L10.8125 52.0625L8.81587 52.1786C8.93842 54.2863 10.0921 55.9103 11.8782 57.0029L12.9219 55.2969ZM10.8125 52.0625V54.0625H24.5703V52.0625V50.0625H10.8125V52.0625ZM24.5703 52.0625L22.5769 51.9002C22.5287 52.4919 22.2532 53.0428 21.3558 53.5854L22.3906 55.2969L23.4255 57.0083C25.2155 55.926 26.3931 54.3206 26.5637 52.2248L24.5703 52.0625ZM22.3906 55.2969L21.3324 53.5998C20.3693 54.2003 19.1783 54.5391 17.6797 54.5391V56.5391V58.5391C19.8061 58.5391 21.7557 58.0497 23.4488 56.994L22.3906 55.2969Z" fill="white" mask="url(#path-1-outside-1_191_59)"/>
<defs>
<linearGradient id="paint0_linear_191_59" x1="18.0234" y1="0.90625" x2="18.0234" y2="57.9062" gradientUnits="userSpaceOnUse">
<stop stop-color="#FFEA00"/>
<stop offset="1" stop-color="#D19003"/>
</linearGradient>
</defs>
</svg>
